
<svg xmlns="http://www.w3.org/2000/svg" viewBox="0 0 1280 800" preserveAspectRatio="xMidYMid slice" font-family="-apple-system, BlinkMacSystemFont, &#39;Segoe UI&#39;, system-ui, sans-serif">
<defs>
  <linearGradient id="bgGrad" x1="0" x2="0" y1="0" y2="1"><stop offset="0" stop-color="#0e1f3a"></stop><stop offset="1" stop-color="#091428"></stop></linearGradient>
  <linearGradient id="hi" x1="0" x2="1"><stop offset="0" stop-color="#22c55e"></stop><stop offset="1" stop-color="#16a34a"></stop></linearGradient>
  <linearGradient id="warn" x1="0" x2="1"><stop offset="0" stop-color="#eab308"></stop><stop offset="1" stop-color="#ca8a04"></stop></linearGradient>
  <linearGradient id="lo" x1="0" x2="1"><stop offset="0" stop-color="#ef4444"></stop><stop offset="1" stop-color="#b91c1c"></stop></linearGradient>
</defs>
<rect width="1280" height="800" fill="url(#bgGrad)"></rect>

<rect x="0" y="0" width="1280" height="56" fill="#06101f"></rect>
<rect x="0" y="55" width="1280" height="1" fill="#1f3358"></rect>
<circle cx="32" cy="28" r="9" fill="#d45a3a"></circle>
<text x="50" y="33" fill="#e6edf5" font-size="14" font-weight="700" letter-spacing="0.04em">NOVA</text>
<g font-size="12" font-weight="600"><text x="140" y="33" fill="#8a9bb4">Home</text><text x="200" y="33" fill="#e6edf5">Triage</text><rect x="196" y="40" width="50" height="2" fill="#d45a3a"></rect><text x="268" y="33" fill="#8a9bb4">Needs Attention</text><text x="388" y="33" fill="#8a9bb4">Dispatch Queue</text><text x="500" y="33" fill="#8a9bb4">Pulse</text><text x="558" y="33" fill="#8a9bb4">Status</text><text x="618" y="33" fill="#8a9bb4">Flash</text></g>
<circle cx="1230" cy="28" r="14" fill="#16294a" stroke="#1f3358"></circle>
<text x="1230" y="33" fill="#8a9bb4" font-size="11" font-weight="700" text-anchor="middle">A</text>
<text x="1200" y="33" fill="#8a9bb4" font-size="11" text-anchor="end">Avery</text>

<text x="40" y="108" fill="#e6edf5" font-size="22" font-weight="700">Bulk Operations</text>
<text x="40" y="130" fill="#8a9bb4" font-size="12">147 tickets selected · ready to apply changes · or run from CSV import</text>


<g transform="translate(40,160)">
  <rect width="320" height="36" rx="10" fill="#0c1c36" stroke="#1f3358"></rect>
  <rect x="4" y="4" width="100" height="28" rx="6" fill="#102545"></rect>
  <text x="54" y="23" fill="#e6edf5" font-size="12" font-weight="700" text-anchor="middle">Bulk edit</text>
  <text x="160" y="23" fill="#8a9bb4" font-size="12" text-anchor="middle">CSV import</text>
  <text x="270" y="23" fill="#8a9bb4" font-size="12" text-anchor="middle">Schedule</text>
</g>


<g transform="translate(40,212)">
  <rect width="640" height="540" rx="10" fill="#0c1c36" stroke="#1f3358"></rect>
  <text x="20" y="32" fill="#e6edf5" font-size="13" font-weight="700">Selected · 147 tickets</text>
  <text x="20" y="50" fill="#8a9bb4" font-size="11">Filter: status=open · age&gt;7d · client=Cresta Studios</text>
  <rect x="0" y="60" width="640" height="1" fill="#1f3358"></rect>
  
    <g transform="translate(0,72)">
      <rect width="640" height="48" fill="#0a1830"></rect>
      <rect x="14" y="16" width="16" height="16" rx="3" fill="#d45a3a"></rect>
      <path d="M18 24 L21 27 L26 21" stroke="#fff" stroke-width="2" fill="none" stroke-linecap="round" stroke-linejoin="round"></path>
      <text x="42" y="28" fill="#a9b8d0" font-size="11" font-weight="600">#48291</text>
      <text x="106" y="28" fill="#e6edf5" font-size="12">Backup job failing on file server</text>
      <text x="500" y="28" fill="#5e7392" font-size="10">Cresta Studios</text>
      <text x="600" y="28" fill="#eab308" font-size="11" text-anchor="end">12d</text>
    </g>
  
    <g transform="translate(0,126)">
      <rect width="640" height="48" fill="transparent"></rect>
      <rect x="14" y="16" width="16" height="16" rx="3" fill="#d45a3a"></rect>
      <path d="M18 24 L21 27 L26 21" stroke="#fff" stroke-width="2" fill="none" stroke-linecap="round" stroke-linejoin="round"></path>
      <text x="42" y="28" fill="#a9b8d0" font-size="11" font-weight="600">#48276</text>
      <text x="106" y="28" fill="#e6edf5" font-size="12">Outlook rule sync stuck</text>
      <text x="500" y="28" fill="#5e7392" font-size="10">Cresta Studios</text>
      <text x="600" y="28" fill="#eab308" font-size="11" text-anchor="end">9d</text>
    </g>
  
    <g transform="translate(0,180)">
      <rect width="640" height="48" fill="#0a1830"></rect>
      <rect x="14" y="16" width="16" height="16" rx="3" fill="#d45a3a"></rect>
      <path d="M18 24 L21 27 L26 21" stroke="#fff" stroke-width="2" fill="none" stroke-linecap="round" stroke-linejoin="round"></path>
      <text x="42" y="28" fill="#a9b8d0" font-size="11" font-weight="600">#48218</text>
      <text x="106" y="28" fill="#e6edf5" font-size="12">Printer offline · finance floor</text>
      <text x="500" y="28" fill="#5e7392" font-size="10">Cresta Studios</text>
      <text x="600" y="28" fill="#eab308" font-size="11" text-anchor="end">8d</text>
    </g>
  
    <g transform="translate(0,234)">
      <rect width="640" height="48" fill="transparent"></rect>
      <rect x="14" y="16" width="16" height="16" rx="3" fill="#d45a3a"></rect>
      <path d="M18 24 L21 27 L26 21" stroke="#fff" stroke-width="2" fill="none" stroke-linecap="round" stroke-linejoin="round"></path>
      <text x="42" y="28" fill="#a9b8d0" font-size="11" font-weight="600">#48177</text>
      <text x="106" y="28" fill="#e6edf5" font-size="12">New hire setup · Liam Park</text>
      <text x="500" y="28" fill="#5e7392" font-size="10">Cresta Studios</text>
      <text x="600" y="28" fill="#eab308" font-size="11" text-anchor="end">8d</text>
    </g>
  
    <g transform="translate(0,288)">
      <rect width="640" height="48" fill="#0a1830"></rect>
      <rect x="14" y="16" width="16" height="16" rx="3" fill="#d45a3a"></rect>
      <path d="M18 24 L21 27 L26 21" stroke="#fff" stroke-width="2" fill="none" stroke-linecap="round" stroke-linejoin="round"></path>
      <text x="42" y="28" fill="#a9b8d0" font-size="11" font-weight="600">#48125</text>
      <text x="106" y="28" fill="#e6edf5" font-size="12">VPN slow during peak</text>
      <text x="500" y="28" fill="#5e7392" font-size="10">Cresta Studios</text>
      <text x="600" y="28" fill="#eab308" font-size="11" text-anchor="end">11d</text>
    </g>
  
    <g transform="translate(0,342)">
      <rect width="640" height="48" fill="transparent"></rect>
      <rect x="14" y="16" width="16" height="16" rx="3" fill="#d45a3a"></rect>
      <path d="M18 24 L21 27 L26 21" stroke="#fff" stroke-width="2" fill="none" stroke-linecap="round" stroke-linejoin="round"></path>
      <text x="42" y="28" fill="#a9b8d0" font-size="11" font-weight="600">#48088</text>
      <text x="106" y="28" fill="#e6edf5" font-size="12">Meeting room display HDMI</text>
      <text x="500" y="28" fill="#5e7392" font-size="10">Cresta Studios</text>
      <text x="600" y="28" fill="#eab308" font-size="11" text-anchor="end">7d</text>
    </g>
  
    <g transform="translate(0,396)">
      <rect width="640" height="48" fill="#0a1830"></rect>
      <rect x="14" y="16" width="16" height="16" rx="3" fill="#d45a3a"></rect>
      <path d="M18 24 L21 27 L26 21" stroke="#fff" stroke-width="2" fill="none" stroke-linecap="round" stroke-linejoin="round"></path>
      <text x="42" y="28" fill="#a9b8d0" font-size="11" font-weight="600">#48055</text>
      <text x="106" y="28" fill="#e6edf5" font-size="12">Mobile MFA reset · Pat R.</text>
      <text x="500" y="28" fill="#5e7392" font-size="10">Cresta Studios</text>
      <text x="600" y="28" fill="#eab308" font-size="11" text-anchor="end">7d</text>
    </g>
  
    <g transform="translate(0,450)">
      <rect width="640" height="48" fill="transparent"></rect>
      <rect x="14" y="16" width="16" height="16" rx="3" fill="#d45a3a"></rect>
      <path d="M18 24 L21 27 L26 21" stroke="#fff" stroke-width="2" fill="none" stroke-linecap="round" stroke-linejoin="round"></path>
      <text x="42" y="28" fill="#a9b8d0" font-size="11" font-weight="600">#48029</text>
      <text x="106" y="28" fill="#e6edf5" font-size="12">Server room AC fluctuating</text>
      <text x="500" y="28" fill="#5e7392" font-size="10">Cresta Studios</text>
      <text x="600" y="28" fill="#eab308" font-size="11" text-anchor="end">9d</text>
    </g>
  
  <text x="20" y="520" fill="#5e7392" font-size="11">+ 139 more · scroll to view</text>
</g>


<g transform="translate(696,212)">
  <rect width="544" height="540" rx="10" fill="#0c1c36" stroke="#1f3358"></rect>
  <text x="24" y="34" fill="#e6edf5" font-size="13" font-weight="700">Apply changes</text>
  <text x="24" y="52" fill="#8a9bb4" font-size="11">Set or clear fields across all 147 selected tickets</text>

  
  
    <g transform="translate(24,78)">
      <text x="0" y="14" fill="#5e7392" font-size="11" letter-spacing=".06em">QUEUE</text>
      <rect x="0" y="22" width="496" height="32" rx="6" fill="#0a1830" stroke="#d45a3a"></rect>
      <text x="14" y="42" fill="#e6edf5" font-size="12" font-weight="600">→ Onsite · West LA</text>
    </g>
  
    <g transform="translate(24,138)">
      <text x="0" y="14" fill="#5e7392" font-size="11" letter-spacing=".06em">PRIORITY</text>
      <rect x="0" y="22" width="496" height="32" rx="6" fill="#0a1830" stroke="#d45a3a"></rect>
      <text x="14" y="42" fill="#e6edf5" font-size="12" font-weight="600">P3 → P2</text>
    </g>
  
    <g transform="translate(24,198)">
      <text x="0" y="14" fill="#5e7392" font-size="11" letter-spacing=".06em">ASSIGNED TECH</text>
      <rect x="0" y="22" width="496" height="32" rx="6" fill="#06101f" stroke="#1f3358"></rect>
      <text x="14" y="42" fill="#5e7392" font-size="12" font-weight="400">(unchanged)</text>
    </g>
  
    <g transform="translate(24,258)">
      <text x="0" y="14" fill="#5e7392" font-size="11" letter-spacing=".06em">STATUS</text>
      <rect x="0" y="22" width="496" height="32" rx="6" fill="#0a1830" stroke="#d45a3a"></rect>
      <text x="14" y="42" fill="#e6edf5" font-size="12" font-weight="600">Open → Scheduled</text>
    </g>
  
    <g transform="translate(24,318)">
      <text x="0" y="14" fill="#5e7392" font-size="11" letter-spacing=".06em">CUSTOM: SLA RESET</text>
      <rect x="0" y="22" width="496" height="32" rx="6" fill="#0a1830" stroke="#d45a3a"></rect>
      <text x="14" y="42" fill="#e6edf5" font-size="12" font-weight="600">Reset to 24h Gold</text>
    </g>
  
    <g transform="translate(24,378)">
      <text x="0" y="14" fill="#5e7392" font-size="11" letter-spacing=".06em">INTERNAL NOTE (APPEND)</text>
      <rect x="0" y="22" width="496" height="32" rx="6" fill="#0a1830" stroke="#d45a3a"></rect>
      <text x="14" y="42" fill="#e6edf5" font-size="12" font-weight="600">&#34;Batched into Q2 onsite block · ref OPS-2841&#34;</text>
    </g>
  

  
  <g transform="translate(24,440)">
    <rect width="496" height="32" rx="6" fill="#0a1830" stroke="#1f3358"></rect>
    <text x="14" y="20" fill="#8a9bb4" font-size="11">147 tickets × 5 fields = 735 changes</text>
    <text x="14" y="34" fill="#5e7392" font-size="10">Estimated apply time · 23 seconds · written back to Autotask</text>
  </g>
  <rect x="24" y="488" width="240" height="36" rx="8" fill="#16294a" stroke="#1f3358"></rect>
  <text x="144" y="510" fill="#a9b8d0" font-size="12" text-anchor="middle">Preview changes</text>
  <rect x="280" y="488" width="240" height="36" rx="8" fill="#d45a3a"></rect>
  <text x="400" y="510" fill="#fff" font-size="12" font-weight="700" text-anchor="middle">Apply to 147 tickets</text>
</g>
</svg>