<svg xmlns="http://www.w3.org/2000/svg" viewBox="0 0 1280 800" preserveAspectRatio="xMidYMid slice" font-family="-apple-system, BlinkMacSystemFont, &#39;Segoe UI&#39;, system-ui, sans-serif">
<defs>
  <linearGradient id="bgGrad" x1="0" x2="0" y1="0" y2="1"><stop offset="0" stop-color="#0e1f3a"></stop><stop offset="1" stop-color="#091428"></stop></linearGradient>
</defs>
<rect width="1280" height="800" fill="url(#bgGrad)"></rect>
<rect x="0" y="0" width="1280" height="56" fill="#06101f"></rect>
  <rect x="0" y="55" width="1280" height="1" fill="#1f3358"></rect>
  <circle cx="32" cy="28" r="9" fill="#d45a3a"></circle>
  <text x="50" y="33" fill="#e6edf5" font-size="14" font-weight="700" letter-spacing="0.04em">NOVA</text>
  <g fill="#8a9bb4" font-size="12" font-weight="600"><text x="140" y="33" fill="#8a9bb4">Home</text><text x="200" y="33" fill="#8a9bb4">Triage</text><text x="270" y="33" fill="#8a9bb4">Needs Attention</text><text x="385" y="33" fill="#8a9bb4">Dispatch Queue</text><text x="495" y="33" fill="#8a9bb4">Pulse</text><text x="555" y="33" fill="#8a9bb4">Status</text></g>
  <circle cx="1230" cy="28" r="14" fill="#16294a" stroke="#1f3358"></circle>
  <text x="1230" y="33" fill="#8a9bb4" font-size="11" font-weight="700" text-anchor="middle">A</text>
  <text x="1200" y="33" fill="#8a9bb4" font-size="11" text-anchor="end">Avery</text>

  <text x="40" y="108" fill="#e6edf5" font-size="22" font-weight="700">Inbound · Sales / Demo Requests</text>
  <text x="40" y="130" fill="#8a9bb4" font-size="12">3 new in last 24h · auto-routed by Nova · enrichment from Apollo + Clearbit</text>

  
  <g transform="translate(40,160)">
    <rect width="380" height="600" rx="14" fill="#0c1c36" stroke="#1f3358"></rect>

    
    <g transform="translate(20,20)">
      <rect width="340" height="36" rx="8" fill="#0a1830" stroke="#1f3358"></rect>
      <text x="14" y="24" fill="#5e7392" font-size="13">Search inbound…</text>
    </g>

    
      <g transform="translate(20,72)">
        <rect width="340" height="76" rx="10" fill="rgba(212,90,58,0.08)" stroke="#d45a3a"></rect>
        <circle cx="24" cy="24" r="14" fill="#16294a"></circle>
        <text x="24" y="29" fill="#a9b8d0" font-size="11" font-weight="700" text-anchor="middle">AK</text>

        <text x="50" y="22" fill="#e6edf5" font-size="13" font-weight="600">Avery K.</text>
        <text x="50" y="38" fill="#8a9bb4" font-size="11">Northwind MSP</text>
        <text x="50" y="58" fill="#a9b8d0" font-size="11">Demo request — 14 techs</text>

        <text x="320" y="22" fill="#5e7392" font-size="10" text-anchor="end">2 min ago</text>
        
          <rect x="282" y="46" width="38" height="16" rx="4" fill="#ef4444" opacity="0.15"></rect>
          <text x="301" y="58" fill="#ef4444" font-size="9" font-weight="800" text-anchor="middle">HOT</text>
      </g>
      <g transform="translate(20,152)">
        <rect width="340" height="76" rx="10" fill="transparent" stroke="transparent"></rect>
        <circle cx="24" cy="24" r="14" fill="#16294a"></circle>
        <text x="24" y="29" fill="#a9b8d0" font-size="11" font-weight="700" text-anchor="middle">NV</text>

        <text x="50" y="22" fill="#e6edf5" font-size="13" font-weight="600">Nessa V.</text>
        <text x="50" y="38" fill="#8a9bb4" font-size="11">Mercer Tech Group</text>
        <text x="50" y="58" fill="#a9b8d0" font-size="11">Pricing for 8-person team</text>

        <text x="320" y="22" fill="#5e7392" font-size="10" text-anchor="end">1h ago</text>
        
          <rect x="282" y="46" width="38" height="16" rx="4" fill="#22c55e" opacity="0.15"></rect>
          <text x="301" y="58" fill="#22c55e" font-size="9" font-weight="800" text-anchor="middle">NEW</text>
      </g>
      <g transform="translate(20,232)">
        <rect width="340" height="76" rx="10" fill="transparent" stroke="transparent"></rect>
        <circle cx="24" cy="24" r="14" fill="#16294a"></circle>
        <text x="24" y="29" fill="#a9b8d0" font-size="11" font-weight="700" text-anchor="middle">BQ</text>

        <text x="50" y="22" fill="#e6edf5" font-size="13" font-weight="600">Birdie Quill</text>
        <text x="50" y="38" fill="#8a9bb4" font-size="11">Pinewood Solutions</text>
        <text x="50" y="58" fill="#a9b8d0" font-size="11">Re: feature roadmap</text>

        <text x="320" y="22" fill="#5e7392" font-size="10" text-anchor="end">4h ago</text>
        
          <rect x="282" y="46" width="38" height="16" rx="4" fill="#60a5fa" opacity="0.15"></rect>
          <text x="301" y="58" fill="#60a5fa" font-size="9" font-weight="800" text-anchor="middle">REPLY</text>
      </g>
      <g transform="translate(20,312)">
        <rect width="340" height="76" rx="10" fill="transparent" stroke="transparent"></rect>
        <circle cx="24" cy="24" r="14" fill="#16294a"></circle>
        <text x="24" y="29" fill="#a9b8d0" font-size="11" font-weight="700" text-anchor="middle">PS</text>

        <text x="50" y="22" fill="#e6edf5" font-size="13" font-weight="600">Pell Strom</text>
        <text x="50" y="38" fill="#8a9bb4" font-size="11">Acme IT Partners</text>
        <text x="50" y="58" fill="#a9b8d0" font-size="11">Migrating from Atera</text>

        <text x="320" y="22" fill="#5e7392" font-size="10" text-anchor="end">yesterday</text>
        
          <rect x="282" y="46" width="38" height="16" rx="4" fill="#ef4444" opacity="0.15"></rect>
          <text x="301" y="58" fill="#ef4444" font-size="9" font-weight="800" text-anchor="middle">HOT</text>
      </g>
      <g transform="translate(20,392)">
        <rect width="340" height="76" rx="10" fill="transparent" stroke="transparent"></rect>
        <circle cx="24" cy="24" r="14" fill="#16294a"></circle>
        <text x="24" y="29" fill="#a9b8d0" font-size="11" font-weight="700" text-anchor="middle">RC</text>

        <text x="50" y="22" fill="#e6edf5" font-size="13" font-weight="600">Renz Calder</text>
        <text x="50" y="38" fill="#8a9bb4" font-size="11">Greenfield Systems</text>
        <text x="50" y="58" fill="#a9b8d0" font-size="11">Question about CIPP integration</text>

        <text x="320" y="22" fill="#5e7392" font-size="10" text-anchor="end">2 days ago</text>
        
      </g>
      <g transform="translate(20,472)">
        <rect width="340" height="76" rx="10" fill="transparent" stroke="transparent"></rect>
        <circle cx="24" cy="24" r="14" fill="#16294a"></circle>
        <text x="24" y="29" fill="#a9b8d0" font-size="11" font-weight="700" text-anchor="middle">VH</text>

        <text x="50" y="22" fill="#e6edf5" font-size="13" font-weight="600">Vance Holloway</text>
        <text x="50" y="38" fill="#8a9bb4" font-size="11">(no company)</text>
        <text x="50" y="58" fill="#a9b8d0" font-size="11">How is this different from SuperOps?</text>

        <text x="320" y="22" fill="#5e7392" font-size="10" text-anchor="end">3 days ago</text>
        
      </g>
  </g>

  
  <g transform="translate(440,160)">
    <rect width="800" height="600" rx="14" fill="#0c1c36" stroke="#1f3358"></rect>

    
    <g transform="translate(24,24)">
      <text x="0" y="0" fill="#e6edf5" font-size="20" font-weight="700">Demo request — 14 techs</text>
      <text x="0" y="22" fill="#8a9bb4" font-size="12">From Avery K. &lt;avery@northwindmsp.io&gt; · 2 min ago</text>

      <rect x="600" y="0" width="80" height="32" rx="8" fill="#16294a"></rect>
      <text x="640" y="20" fill="#a9b8d0" font-size="11" font-weight="600" text-anchor="middle">Snooze</text>
      <rect x="688" y="0" width="64" height="32" rx="8" fill="#d45a3a"></rect>
      <text x="720" y="20" fill="#fff" font-size="11" font-weight="700" text-anchor="middle">Reply</text>
    </g>

    
    <g transform="translate(24,80)">
      <rect width="752" height="100" rx="12" fill="rgba(34,197,94,0.06)" stroke="#22c55e"></rect>
      <circle cx="20" cy="20" r="10" fill="#22c55e"></circle>
      <text x="20" y="24" fill="#0a1628" font-size="11" font-weight="800" text-anchor="middle">N</text>
      <text x="40" y="24" fill="#22c55e" font-size="12" font-weight="700">Nova enriched · 3 sources</text>

      <text x="20" y="50" fill="#a9b8d0" font-size="11"><tspan fill="#e6edf5" font-weight="600">Northwind MSP</tspan> · 14 employees · Burbank CA · Microsoft Solutions Partner</text>
      <text x="20" y="68" fill="#a9b8d0" font-size="11">Currently using <tspan fill="#fbbf24">Atera</tspan> (per LinkedIn job posts) · Autotask migration in progress</text>
      <text x="20" y="86" fill="#a9b8d0" font-size="11">Avery is CEO · 8 yrs in MSP space · prev. <tspan fill="#fbbf24">Carbonite Pro</tspan> · referenced by Mercer (existing customer)</text>
    </g>

    
    <g transform="translate(24,200)">
      <text x="0" y="0" fill="#5e7392" font-size="11" font-weight="700" letter-spacing="0.08em">MESSAGE</text>
      <text x="0" y="28" fill="#e6edf5" font-size="14" font-weight="600">Hey team —</text>
      <text x="0" y="54" fill="#a9b8d0" font-size="13">We&#39;re a 14-person MSP in Burbank, currently on Atera but wrapping</text>
      <text x="0" y="74" fill="#a9b8d0" font-size="13">an Autotask migration. Saw your demo at IT Nation — really interested</text>
      <text x="0" y="94" fill="#a9b8d0" font-size="13">in the AI triage piece. Our dispatcher is drowning.</text>

      <text x="0" y="128" fill="#a9b8d0" font-size="13">Can we set up a 30-min call next week? Tuesdays or Wednesdays</text>
      <text x="0" y="148" fill="#a9b8d0" font-size="13">work best. Looking to make a decision before end of Q1.</text>

      <text x="0" y="184" fill="#e6edf5" font-size="14">Avery</text>
      <text x="0" y="204" fill="#8a9bb4" font-size="11">CEO · Northwind MSP · (818) 555-0142</text>
    </g>

    
    <g transform="translate(24,432)">
      <text x="0" y="0" fill="#5e7392" font-size="11" font-weight="700" letter-spacing="0.08em">SUGGESTED REPLY · GENERATED BY NOVA</text>
      <rect x="0" y="14" width="752" height="120" rx="10" fill="#0a1830" stroke="#1f3358" stroke-dasharray="3 3"></rect>
      <text x="14" y="38" fill="#a9b8d0" font-size="12">Hi Avery — thanks for reaching out, and great to connect again after</text>
      <text x="14" y="56" fill="#a9b8d0" font-size="12">IT Nation. Tuesday at 10 AM PT or Wednesday at 2 PM PT both work for</text>
      <text x="14" y="74" fill="#a9b8d0" font-size="12">our solution lead. I&#39;ll wire Pulse to your Teams during the call so you</text>
      <text x="14" y="92" fill="#a9b8d0" font-size="12">can see tomorrow&#39;s huddle drafted live...</text>
      <text x="14" y="120" fill="#5e7392" font-size="10">[ Edit ] [ Use as-is ] [ Regenerate ] · personalized: mentioned IT Nation, Atera→Autotask context</text>
    </g>
  </g>

</svg>