
<svg xmlns="http://www.w3.org/2000/svg" viewBox="0 0 1280 800" preserveAspectRatio="xMidYMid slice" font-family="-apple-system, BlinkMacSystemFont, &#39;Segoe UI&#39;, system-ui, sans-serif">
<defs>
  <linearGradient id="bgGrad" x1="0" x2="0" y1="0" y2="1"><stop offset="0" stop-color="#0e1f3a"></stop><stop offset="1" stop-color="#091428"></stop></linearGradient>
  <linearGradient id="hi" x1="0" x2="1"><stop offset="0" stop-color="#22c55e"></stop><stop offset="1" stop-color="#16a34a"></stop></linearGradient>
  <linearGradient id="warn" x1="0" x2="1"><stop offset="0" stop-color="#eab308"></stop><stop offset="1" stop-color="#ca8a04"></stop></linearGradient>
  <linearGradient id="lo" x1="0" x2="1"><stop offset="0" stop-color="#ef4444"></stop><stop offset="1" stop-color="#b91c1c"></stop></linearGradient>
</defs>
<rect width="1280" height="800" fill="url(#bgGrad)"></rect>

<rect x="0" y="0" width="1280" height="56" fill="#06101f"></rect>
<rect x="0" y="55" width="1280" height="1" fill="#1f3358"></rect>
<circle cx="32" cy="28" r="9" fill="#d45a3a"></circle>
<text x="50" y="33" fill="#e6edf5" font-size="14" font-weight="700" letter-spacing="0.04em">NOVA</text>
<g font-size="12" font-weight="600"><text x="140" y="33" fill="#8a9bb4">Home</text><text x="200" y="33" fill="#8a9bb4">Triage</text><text x="268" y="33" fill="#8a9bb4">Needs Attention</text><text x="388" y="33" fill="#8a9bb4">Dispatch Queue</text><text x="500" y="33" fill="#8a9bb4">Pulse</text><text x="558" y="33" fill="#e6edf5">Status</text><rect x="554" y="40" width="50" height="2" fill="#d45a3a"></rect><text x="618" y="33" fill="#8a9bb4">Flash</text></g>
<circle cx="1230" cy="28" r="14" fill="#16294a" stroke="#1f3358"></circle>
<text x="1230" y="33" fill="#8a9bb4" font-size="11" font-weight="700" text-anchor="middle">A</text>
<text x="1200" y="33" fill="#8a9bb4" font-size="11" text-anchor="end">Avery</text>

<text x="40" y="108" fill="#e6edf5" font-size="22" font-weight="700">CSAT</text>
<text x="40" y="130" fill="#8a9bb4" font-size="12">Last 30 days · 412 responses · 32.4% capture rate · 4.7 / 5 average</text>


<g transform="translate(40,160)">
  <rect width="600" height="200" rx="10" fill="#0c1c36" stroke="#1f3358"></rect>
  <text x="32" y="42" fill="#8a9bb4" font-size="11" letter-spacing=".06em">OVERALL SCORE</text>
  <text x="32" y="120" fill="#e6edf5" font-size="76" font-weight="800">4.7</text>
  <text x="170" y="120" fill="#5e7392" font-size="28" font-weight="600">/ 5.0</text>
  <text x="32" y="160" fill="#22c55e" font-size="14" font-weight="600">▲ 0.2 vs last 30 days</text>
  
  
    <text x="320" y="52" fill="#a9b8d0" font-size="12" font-weight="700">5★</text>
    <rect x="350" y="42" width="171.60000000000002" height="14" rx="4" fill="#22c55e"></rect>
    <text x="531.6" y="52" fill="#a9b8d0" font-size="11">312</text>
  
    <text x="320" y="80" fill="#a9b8d0" font-size="12" font-weight="700">4★</text>
    <rect x="350" y="70" width="42.900000000000006" height="14" rx="4" fill="#84cc16"></rect>
    <text x="402.9" y="80" fill="#a9b8d0" font-size="11">78</text>
  
    <text x="320" y="108" fill="#a9b8d0" font-size="12" font-weight="700">3★</text>
    <rect x="350" y="98" width="7.700000000000001" height="14" rx="4" fill="#eab308"></rect>
    <text x="367.7" y="108" fill="#a9b8d0" font-size="11">14</text>
  
    <text x="320" y="136" fill="#a9b8d0" font-size="12" font-weight="700">2★</text>
    <rect x="350" y="126" width="2.75" height="14" rx="4" fill="#f97316"></rect>
    <text x="362.75" y="136" fill="#a9b8d0" font-size="11">5</text>
  
    <text x="320" y="164" fill="#a9b8d0" font-size="12" font-weight="700">1★</text>
    <rect x="350" y="154" width="1.6500000000000001" height="14" rx="4" fill="#ef4444"></rect>
    <text x="361.65" y="164" fill="#a9b8d0" font-size="11">3</text>
  
</g>


<g transform="translate(656,160)">
  <rect width="288" height="92" rx="10" fill="#0c1c36" stroke="#1f3358"></rect>
  <text x="20" y="34" fill="#8a9bb4" font-size="11" letter-spacing=".06em">CAPTURE RATE</text>
  <text x="20" y="72" fill="#e6edf5" font-size="32" font-weight="800">32.4%</text>
  <text x="138" y="72" fill="#22c55e" font-size="11">▲ 4.1</text>
</g>
<g transform="translate(952,160)">
  <rect width="288" height="92" rx="10" fill="#0c1c36" stroke="#1f3358"></rect>
  <text x="20" y="34" fill="#8a9bb4" font-size="11" letter-spacing=".06em">MODERATED</text>
  <text x="20" y="72" fill="#e6edf5" font-size="32" font-weight="800">7</text>
  <text x="58" y="72" fill="#8a9bb4" font-size="11">/ 412 (1.7%)</text>
</g>
<g transform="translate(656,264)">
  <rect width="584" height="96" rx="10" fill="#0c1c36" stroke="#1f3358"></rect>
  <text x="20" y="34" fill="#8a9bb4" font-size="11" letter-spacing=".06em">PER-TECH LEADERBOARD</text>
  
    <circle cx="30" cy="68" r="11" fill="#16294a"></circle>
    <text x="30" y="72" fill="#a9b8d0" font-size="9" font-weight="700" text-anchor="middle">DS</text>
    <text x="48" y="64" fill="#e6edf5" font-size="11" font-weight="600">Devon S.</text>
    <text x="48" y="78" fill="#22c55e" font-size="12" font-weight="700">4.92 ★</text>
  
    <circle cx="170" cy="68" r="11" fill="#16294a"></circle>
    <text x="170" y="72" fill="#a9b8d0" font-size="9" font-weight="700" text-anchor="middle">AK</text>
    <text x="188" y="64" fill="#e6edf5" font-size="11" font-weight="600">Avery K.</text>
    <text x="188" y="78" fill="#22c55e" font-size="12" font-weight="700">4.81 ★</text>
  
    <circle cx="310" cy="68" r="11" fill="#16294a"></circle>
    <text x="310" y="72" fill="#a9b8d0" font-size="9" font-weight="700" text-anchor="middle">KR</text>
    <text x="328" y="64" fill="#e6edf5" font-size="11" font-weight="600">Kai R.</text>
    <text x="328" y="78" fill="#84cc16" font-size="12" font-weight="700">4.74 ★</text>
  
    <circle cx="450" cy="68" r="11" fill="#16294a"></circle>
    <text x="450" y="72" fill="#a9b8d0" font-size="9" font-weight="700" text-anchor="middle">SP</text>
    <text x="468" y="64" fill="#e6edf5" font-size="11" font-weight="600">Sasha P.</text>
    <text x="468" y="78" fill="#eab308" font-size="12" font-weight="700">4.42 ★</text>
  
</g>


<text x="40" y="400" fill="#e6edf5" font-size="14" font-weight="700">Recent reviews</text>
<g transform="translate(40,420)">
  
    <g transform="translate(0,0)">
      <rect width="1200" height="56" rx="8" fill="#0c1c36" stroke="#1f3358"></rect>
      <g transform="translate(20,16)">
        <text x="0" y="14" fill="#fbbf24" font-size="14">★</text><text x="16" y="14" fill="#fbbf24" font-size="14">★</text><text x="32" y="14" fill="#fbbf24" font-size="14">★</text><text x="48" y="14" fill="#fbbf24" font-size="14">★</text><text x="64" y="14" fill="#fbbf24" font-size="14">★</text>
      </g>
      <text x="120" y="22" fill="#a9b8d0" font-size="11" font-weight="600">Cresta Studios</text>
      <text x="220" y="22" fill="#e6edf5" font-size="12">Devon dispatched in 4 minutes flat. Saved our morning.</text>
      <text x="220" y="42" fill="#5e7392" font-size="10">Sam L. · IT Lead · 14m ago</text>
      
      <text x="1180" y="32" fill="#5e7392" font-size="11" text-anchor="end"></text>
    </g>
  
    <g transform="translate(0,64)">
      <rect width="1200" height="56" rx="8" fill="#1f1112" stroke="#7f1d1d"></rect>
      <g transform="translate(20,16)">
        <text x="0" y="14" fill="#ef4444" font-size="14">★</text><text x="16" y="14" fill="#3a4a64" font-size="14">★</text><text x="32" y="14" fill="#3a4a64" font-size="14">★</text><text x="48" y="14" fill="#3a4a64" font-size="14">★</text><text x="64" y="14" fill="#3a4a64" font-size="14">★</text>
      </g>
      <text x="120" y="22" fill="#a9b8d0" font-size="11" font-weight="600">Bayline Health</text>
      <text x="220" y="22" fill="#e6edf5" font-size="12">Took three days. Asked twice why nothing was happening.</text>
      <text x="220" y="42" fill="#5e7392" font-size="10">Pat R. · Office Mgr · 2h ago · ⚠ flagged</text>
      <rect x="900" y="16" width="120" height="24" rx="6" fill="#7f1d1d33" stroke="#7f1d1d"></rect><text x="960" y="32" fill="#fca5a5" font-size="10" text-anchor="middle">Override</text>
      <rect x="1030" y="16" width="100" height="24" rx="6" fill="#16294a" stroke="#1f3358"></rect><text x="1080" y="32" fill="#a9b8d0" font-size="10" text-anchor="middle">Restore</text>
    </g>
  
    <g transform="translate(0,128)">
      <rect width="1200" height="56" rx="8" fill="#0c1c36" stroke="#1f3358"></rect>
      <g transform="translate(20,16)">
        <text x="0" y="14" fill="#fbbf24" font-size="14">★</text><text x="16" y="14" fill="#fbbf24" font-size="14">★</text><text x="32" y="14" fill="#fbbf24" font-size="14">★</text><text x="48" y="14" fill="#fbbf24" font-size="14">★</text><text x="64" y="14" fill="#fbbf24" font-size="14">★</text>
      </g>
      <text x="120" y="22" fill="#a9b8d0" font-size="11" font-weight="600">Greenfield Realty</text>
      <text x="220" y="22" fill="#e6edf5" font-size="12">Avery walked me through it without making me feel slow.</text>
      <text x="220" y="42" fill="#5e7392" font-size="10">Jamie F. · 4h ago</text>
      
      <text x="1180" y="32" fill="#5e7392" font-size="11" text-anchor="end"></text>
    </g>
  
    <g transform="translate(0,192)">
      <rect width="1200" height="56" rx="8" fill="#0c1c36" stroke="#1f3358"></rect>
      <g transform="translate(20,16)">
        <text x="0" y="14" fill="#fbbf24" font-size="14">★</text><text x="16" y="14" fill="#fbbf24" font-size="14">★</text><text x="32" y="14" fill="#fbbf24" font-size="14">★</text><text x="48" y="14" fill="#fbbf24" font-size="14">★</text><text x="64" y="14" fill="#3a4a64" font-size="14">★</text>
      </g>
      <text x="120" y="22" fill="#a9b8d0" font-size="11" font-weight="600">Northwind Logistics</text>
      <text x="220" y="22" fill="#e6edf5" font-size="12">Resolved fast. Wish we got status updates earlier in the day.</text>
      <text x="220" y="42" fill="#5e7392" font-size="10">Sasha L. · 8h ago</text>
      
      <text x="1180" y="32" fill="#5e7392" font-size="11" text-anchor="end"></text>
    </g>
  
    <g transform="translate(0,256)">
      <rect width="1200" height="56" rx="8" fill="#0c1c36" stroke="#1f3358"></rect>
      <g transform="translate(20,16)">
        <text x="0" y="14" fill="#eab308" font-size="14">★</text><text x="16" y="14" fill="#eab308" font-size="14">★</text><text x="32" y="14" fill="#eab308" font-size="14">★</text><text x="48" y="14" fill="#3a4a64" font-size="14">★</text><text x="64" y="14" fill="#3a4a64" font-size="14">★</text>
      </g>
      <text x="120" y="22" fill="#a9b8d0" font-size="11" font-weight="600">Cresta Studios</text>
      <text x="220" y="22" fill="#e6edf5" font-size="12">Worked. The tech was clearly busy, hard to ask follow-ups.</text>
      <text x="220" y="42" fill="#5e7392" font-size="10">Liam W. · 1d ago</text>
      
      <text x="1180" y="32" fill="#5e7392" font-size="11" text-anchor="end"></text>
    </g>
  
</g>

<text x="40" y="780" fill="#5e7392" font-size="11">CSAT capture is built in · no SmileBack subscription · neutral (3) counts as 0.5</text>
</svg>