<svg xmlns="http://www.w3.org/2000/svg" viewBox="0 0 1280 800" preserveAspectRatio="xMidYMid slice" font-family="-apple-system, BlinkMacSystemFont, &#39;Segoe UI&#39;, system-ui, sans-serif">
<defs>
  <linearGradient id="bgGrad" x1="0" x2="0" y1="0" y2="1"><stop offset="0" stop-color="#0e1f3a"></stop><stop offset="1" stop-color="#091428"></stop></linearGradient>
</defs>
<rect width="1280" height="800" fill="url(#bgGrad)"></rect>
<rect x="0" y="0" width="1280" height="56" fill="#06101f"></rect>
  <rect x="0" y="55" width="1280" height="1" fill="#1f3358"></rect>
  <circle cx="32" cy="28" r="9" fill="#d45a3a"></circle>
  <text x="50" y="33" fill="#e6edf5" font-size="14" font-weight="700" letter-spacing="0.04em">NOVA</text>
  <g fill="#8a9bb4" font-size="12" font-weight="600"><text x="140" y="33" fill="#8a9bb4">Home</text><text x="200" y="33" fill="#8a9bb4">Triage</text><text x="270" y="33" fill="#8a9bb4">Needs Attention</text><text x="385" y="33" fill="#8a9bb4">Dispatch Queue</text><text x="495" y="33" fill="#8a9bb4">Pulse</text><text x="555" y="33" fill="#8a9bb4">Status</text></g>
  <circle cx="1230" cy="28" r="14" fill="#16294a" stroke="#1f3358"></circle>
  <text x="1230" y="33" fill="#8a9bb4" font-size="11" font-weight="700" text-anchor="middle">A</text>
  <text x="1200" y="33" fill="#8a9bb4" font-size="11" text-anchor="end">Avery</text>

  <text x="40" y="108" fill="#5e7392" font-size="11" font-weight="700" letter-spacing="0.08em" font-family="ui-monospace,Menlo,monospace">CLIENTS / ACME HOLDINGS</text>
  <text x="40" y="138" fill="#e6edf5" font-size="28" font-weight="700">Acme Holdings</text>
  <text x="40" y="162" fill="#8a9bb4" font-size="13">247 users · 4 locations · Gold SLA · client since Mar 2022 · acmeholdings.com</text>

  
  <g transform="translate(40,200)">
    
      <g transform="translate(0,0)">
        <rect width="220" height="100" rx="14" fill="#0c1c36" stroke="#1f3358"></rect>
        <text x="20" y="28" fill="#5e7392" font-size="10" font-weight="700" letter-spacing="0.08em">TICKETS THIS MONTH</text>
        <text x="20" y="64" fill="#e6edf5" font-size="24" font-weight="700" font-family="ui-monospace,Menlo,monospace">42</text>
        <text x="20" y="84" fill="#22c55e" font-size="11" font-weight="600">-18% vs last</text>
      </g>
      <g transform="translate(240,0)">
        <rect width="220" height="100" rx="14" fill="#0c1c36" stroke="#1f3358"></rect>
        <text x="20" y="28" fill="#5e7392" font-size="10" font-weight="700" letter-spacing="0.08em">AVG RESPONSE</text>
        <text x="20" y="64" fill="#e6edf5" font-size="24" font-weight="700" font-family="ui-monospace,Menlo,monospace">6m 48s</text>
        <text x="20" y="84" fill="#22c55e" font-size="11" font-weight="600">beats 30m SLA</text>
      </g>
      <g transform="translate(480,0)">
        <rect width="220" height="100" rx="14" fill="#0c1c36" stroke="#1f3358"></rect>
        <text x="20" y="28" fill="#5e7392" font-size="10" font-weight="700" letter-spacing="0.08em">CSAT (90 days)</text>
        <text x="20" y="64" fill="#e6edf5" font-size="24" font-weight="700" font-family="ui-monospace,Menlo,monospace">4.8 ★</text>
        <text x="20" y="84" fill="#22c55e" font-size="11" font-weight="600">24 of 28 responded</text>
      </g>
      <g transform="translate(720,0)">
        <rect width="220" height="100" rx="14" fill="#0c1c36" stroke="#1f3358"></rect>
        <text x="20" y="28" fill="#5e7392" font-size="10" font-weight="700" letter-spacing="0.08em">MRR</text>
        <text x="20" y="64" fill="#e6edf5" font-size="24" font-weight="700" font-family="ui-monospace,Menlo,monospace">$8,400</text>
        <text x="20" y="84" fill="#a78bfa" font-size="11" font-weight="600">recently upgraded</text>
      </g>
      <g transform="translate(960,0)">
        <rect width="220" height="100" rx="14" fill="#0c1c36" stroke="#1f3358"></rect>
        <text x="20" y="28" fill="#5e7392" font-size="10" font-weight="700" letter-spacing="0.08em">HEALTH</text>
        <text x="20" y="64" fill="#e6edf5" font-size="24" font-weight="700" font-family="ui-monospace,Menlo,monospace">92</text>
        <text x="20" y="84" fill="#22c55e" font-size="11" font-weight="600">green · stable</text>
      </g>
  </g>

  
  <g transform="translate(40,330)">
    <text x="0" y="0" fill="#5e7392" font-size="11" font-weight="700" letter-spacing="0.08em">TICKET VOLUME · 12 MONTHS</text>
    <rect x="0" y="14" width="780" height="240" rx="14" fill="#0c1c36" stroke="#1f3358"></rect>

    
    <g transform="translate(40,40)">
      <rect x="0" y="93.5" width="50.333333333333336" height="66.5" rx="3" fill="#5e7392" opacity="0.85"></rect>
            <text x="25.166666666666668" y="91.5" fill="#a9b8d0" font-size="10" font-weight="700" text-anchor="middle" font-family="ui-monospace,Menlo,monospace">38</text>
            <text x="25.166666666666668" y="180" fill="#5e7392" font-size="10" text-anchor="middle">Feb</text><rect x="58.333333333333336" y="79.5" width="50.333333333333336" height="80.5" rx="3" fill="#5e7392" opacity="0.85"></rect>
            <text x="83.5" y="77.5" fill="#a9b8d0" font-size="10" font-weight="700" text-anchor="middle" font-family="ui-monospace,Menlo,monospace">46</text>
            <text x="83.5" y="180" fill="#5e7392" font-size="10" text-anchor="middle">Mar</text><rect x="116.66666666666667" y="69" width="50.333333333333336" height="91" rx="3" fill="#5e7392" opacity="0.85"></rect>
            <text x="141.83333333333334" y="67" fill="#a9b8d0" font-size="10" font-weight="700" text-anchor="middle" font-family="ui-monospace,Menlo,monospace">52</text>
            <text x="141.83333333333334" y="180" fill="#5e7392" font-size="10" text-anchor="middle">Apr</text><rect x="175" y="76" width="50.333333333333336" height="84" rx="3" fill="#5e7392" opacity="0.85"></rect>
            <text x="200.16666666666666" y="74" fill="#a9b8d0" font-size="10" font-weight="700" text-anchor="middle" font-family="ui-monospace,Menlo,monospace">48</text>
            <text x="200.16666666666666" y="180" fill="#5e7392" font-size="10" text-anchor="middle">May</text><rect x="233.33333333333334" y="42.75" width="50.333333333333336" height="117.25" rx="3" fill="#d45a3a" opacity="0.85"></rect>
            <text x="258.5" y="40.75" fill="#a9b8d0" font-size="10" font-weight="700" text-anchor="middle" font-family="ui-monospace,Menlo,monospace">67</text>
            <text x="258.5" y="180" fill="#5e7392" font-size="10" text-anchor="middle">Jun</text><rect x="291.6666666666667" y="35.75" width="50.333333333333336" height="124.25" rx="3" fill="#d45a3a" opacity="0.85"></rect>
            <text x="316.83333333333337" y="33.75" fill="#a9b8d0" font-size="10" font-weight="700" text-anchor="middle" font-family="ui-monospace,Menlo,monospace">71</text>
            <text x="316.83333333333337" y="180" fill="#5e7392" font-size="10" text-anchor="middle">Jul</text><rect x="350" y="58.5" width="50.333333333333336" height="101.5" rx="3" fill="#d45a3a" opacity="0.85"></rect>
            <text x="375.1666666666667" y="56.5" fill="#a9b8d0" font-size="10" font-weight="700" text-anchor="middle" font-family="ui-monospace,Menlo,monospace">58</text>
            <text x="375.1666666666667" y="180" fill="#5e7392" font-size="10" text-anchor="middle">Aug</text><rect x="408.33333333333337" y="74.25" width="50.333333333333336" height="85.75" rx="3" fill="#d45a3a" opacity="0.85"></rect>
            <text x="433.50000000000006" y="72.25" fill="#a9b8d0" font-size="10" font-weight="700" text-anchor="middle" font-family="ui-monospace,Menlo,monospace">49</text>
            <text x="433.50000000000006" y="180" fill="#5e7392" font-size="10" text-anchor="middle">Sep</text><rect x="466.6666666666667" y="86.5" width="50.333333333333336" height="73.5" rx="3" fill="#d45a3a" opacity="0.85"></rect>
            <text x="491.83333333333337" y="84.5" fill="#a9b8d0" font-size="10" font-weight="700" text-anchor="middle" font-family="ui-monospace,Menlo,monospace">42</text>
            <text x="491.83333333333337" y="180" fill="#5e7392" font-size="10" text-anchor="middle">Oct</text><rect x="525" y="93.5" width="50.333333333333336" height="66.5" rx="3" fill="#d45a3a" opacity="0.85"></rect>
            <text x="550.1666666666666" y="91.5" fill="#a9b8d0" font-size="10" font-weight="700" text-anchor="middle" font-family="ui-monospace,Menlo,monospace">38</text>
            <text x="550.1666666666666" y="180" fill="#5e7392" font-size="10" text-anchor="middle">Nov</text><rect x="583.3333333333334" y="86.5" width="50.333333333333336" height="73.5" rx="3" fill="#d45a3a" opacity="0.85"></rect>
            <text x="608.5" y="84.5" fill="#a9b8d0" font-size="10" font-weight="700" text-anchor="middle" font-family="ui-monospace,Menlo,monospace">42</text>
            <text x="608.5" y="180" fill="#5e7392" font-size="10" text-anchor="middle">Dec</text><rect x="641.6666666666667" y="86.5" width="50.333333333333336" height="73.5" rx="3" fill="#d45a3a" opacity="0.85"></rect>
            <text x="666.8333333333334" y="84.5" fill="#a9b8d0" font-size="10" font-weight="700" text-anchor="middle" font-family="ui-monospace,Menlo,monospace">42</text>
            <text x="666.8333333333334" y="180" fill="#5e7392" font-size="10" text-anchor="middle">Jan</text>
          <line x1="262.4" y1="0" x2="262.4" y2="160" stroke="#22c55e" stroke-dasharray="3 3" opacity="0.6"></line>
          <text x="266.4" y="-2" fill="#22c55e" font-size="10" font-weight="700">Nova rolled out</text>
    </g>
  </g>

  
  <g transform="translate(840,330)">
    <text x="0" y="0" fill="#5e7392" font-size="11" font-weight="700" letter-spacing="0.08em">PRIMARY CONTACTS</text>
    <rect x="0" y="14" width="400" height="240" rx="14" fill="#0c1c36" stroke="#1f3358"></rect>

    
      <g transform="translate(20,34)">
        <circle cx="20" cy="20" r="16" fill="#16294a"></circle>
        <text x="20" y="25" fill="#a9b8d0" font-size="13" font-weight="700" text-anchor="middle">JK</text>
        <text x="48" y="14" fill="#e6edf5" font-size="13" font-weight="600">Halden Brix</text>
        <text x="48" y="30" fill="#8a9bb4" font-size="11">Head of Ops</text>
        <text x="48" y="48" fill="#60a5fa" font-size="10">halden.b@acme.com</text>
        <rect x="320" y="6" width="44" height="20" rx="4" fill="#0a1830" stroke="#1f3358"></rect>
        <text x="342" y="20" fill="#a9b8d0" font-size="10" font-weight="700" text-anchor="middle">Tier 1</text>
        <text x="342" y="42" fill="#5e7392" font-size="10" text-anchor="middle">8 tkt</text>
      </g>
      <g transform="translate(20,104)">
        <circle cx="20" cy="20" r="16" fill="#16294a"></circle>
        <text x="20" y="25" fill="#a9b8d0" font-size="13" font-weight="700" text-anchor="middle">DS</text>
        <text x="48" y="14" fill="#e6edf5" font-size="13" font-weight="600">Tasi Velmer</text>
        <text x="48" y="30" fill="#8a9bb4" font-size="11">IT Coordinator</text>
        <text x="48" y="48" fill="#60a5fa" font-size="10">tasi.v@acme.com</text>
        <rect x="320" y="6" width="44" height="20" rx="4" fill="#0a1830" stroke="#1f3358"></rect>
        <text x="342" y="20" fill="#a9b8d0" font-size="10" font-weight="700" text-anchor="middle">Tier 1</text>
        <text x="342" y="42" fill="#5e7392" font-size="10" text-anchor="middle">14 tkt</text>
      </g>
      <g transform="translate(20,174)">
        <circle cx="20" cy="20" r="16" fill="#16294a"></circle>
        <text x="20" y="25" fill="#a9b8d0" font-size="13" font-weight="700" text-anchor="middle">DP</text>
        <text x="48" y="14" fill="#e6edf5" font-size="13" font-weight="600">Olen Marsh</text>
        <text x="48" y="30" fill="#8a9bb4" font-size="11">CFO</text>
        <text x="48" y="48" fill="#60a5fa" font-size="10">olen.m@acme.com</text>
        <rect x="320" y="6" width="44" height="20" rx="4" fill="#3b1818" stroke="#ef4444"></rect>
        <text x="342" y="20" fill="#ef4444" font-size="10" font-weight="700" text-anchor="middle">VIP</text>
        <text x="342" y="42" fill="#5e7392" font-size="10" text-anchor="middle">2 tkt</text>
      </g>
  </g>

  
  <g transform="translate(40,610)">
    <text x="0" y="0" fill="#5e7392" font-size="11" font-weight="700" letter-spacing="0.08em">RECENT TIMELINE</text>
    <rect x="0" y="14" width="1200" height="140" rx="14" fill="#0c1c36" stroke="#1f3358"></rect>

    
      <g transform="translate(24,38)">
        <circle cx="6" cy="6" r="5" fill="#d45a3a"></circle>
        <text x="0" y="32" fill="#5e7392" font-size="10" font-family="ui-monospace,Menlo,monospace">2m ago</text>
        <text x="0" y="56" fill="#a9b8d0" font-size="11" font-weight="500"><tspan>T-48217 created · Outlook</tspan></text>
        <text x="0" y="74" fill="#a9b8d0" font-size="11">disconnect · auto-routed to Devon S.</text>
      </g>
      <g transform="translate(264,38)">
        <circle cx="6" cy="6" r="5" fill="#22c55e"></circle>
        <text x="0" y="32" fill="#5e7392" font-size="10" font-family="ui-monospace,Menlo,monospace">1h ago</text>
        <text x="0" y="56" fill="#a9b8d0" font-size="11" font-weight="500"><tspan>T-48205 resolved · 14m</tspan></text>
        <text x="0" y="74" fill="#a9b8d0" font-size="11">elapsed · CSAT 5★</text>
      </g>
      <g transform="translate(504,38)">
        <circle cx="6" cy="6" r="5" fill="#eab308"></circle>
        <text x="0" y="32" fill="#5e7392" font-size="10" font-family="ui-monospace,Menlo,monospace">4h ago</text>
        <text x="0" y="56" fill="#a9b8d0" font-size="11" font-weight="500"><tspan>Pulse: 3 M365 tickets</tspan></text>
        <text x="0" y="74" fill="#a9b8d0" font-size="11">in 2h — pattern flagged</text>
      </g>
      <g transform="translate(744,38)">
        <circle cx="6" cy="6" r="5" fill="#a78bfa"></circle>
        <text x="0" y="32" fill="#5e7392" font-size="10" font-family="ui-monospace,Menlo,monospace">yesterday</text>
        <text x="0" y="56" fill="#a9b8d0" font-size="11" font-weight="500"><tspan>QBR delivered to David</tspan></text>
        <text x="0" y="74" fill="#a9b8d0" font-size="11">Park · 12 page brief</text>
      </g>
      <g transform="translate(984,38)">
        <circle cx="6" cy="6" r="5" fill="#60a5fa"></circle>
        <text x="0" y="32" fill="#5e7392" font-size="10" font-family="ui-monospace,Menlo,monospace">2 days ago</text>
        <text x="0" y="56" fill="#a9b8d0" font-size="11" font-weight="500"><tspan>+ 2 users provisioned</tspan></text>
        <text x="0" y="74" fill="#a9b8d0" font-size="11">(Sarah K, Tom W.)</text>
      </g>
  </g>

</svg>