<svg xmlns="http://www.w3.org/2000/svg" viewBox="0 0 1280 800" preserveAspectRatio="xMidYMid slice" font-family="-apple-system, BlinkMacSystemFont, &#39;Segoe UI&#39;, system-ui, sans-serif">
<defs>
  <linearGradient id="bgGrad" x1="0" x2="0" y1="0" y2="1"><stop offset="0" stop-color="#0e1f3a"></stop><stop offset="1" stop-color="#091428"></stop></linearGradient>
</defs>
<rect width="1280" height="800" fill="url(#bgGrad)"></rect>
<rect x="0" y="0" width="1280" height="56" fill="#06101f"></rect>
  <rect x="0" y="55" width="1280" height="1" fill="#1f3358"></rect>
  <circle cx="32" cy="28" r="9" fill="#d45a3a"></circle>
  <text x="50" y="33" fill="#e6edf5" font-size="14" font-weight="700" letter-spacing="0.04em">NOVA</text>
  <g fill="#8a9bb4" font-size="12" font-weight="600"><text x="140" y="33" fill="#8a9bb4">Home</text><text x="200" y="33" fill="#8a9bb4">Triage</text><text x="270" y="33" fill="#8a9bb4">Needs Attention</text><text x="385" y="33" fill="#8a9bb4">Dispatch Queue</text><text x="495" y="33" fill="#8a9bb4">Pulse</text><text x="555" y="33" fill="#8a9bb4">Status</text></g>
  <circle cx="1230" cy="28" r="14" fill="#16294a" stroke="#1f3358"></circle>
  <text x="1230" y="33" fill="#8a9bb4" font-size="11" font-weight="700" text-anchor="middle">A</text>
  <text x="1200" y="33" fill="#8a9bb4" font-size="11" text-anchor="end">Avery</text>

  <text x="40" y="108" fill="#e6edf5" font-size="22" font-weight="700">Nova Modules</text>
  <text x="40" y="130" fill="#8a9bb4" font-size="12">All capabilities at a glance · click any module to configure · admin@northwindmsp.io</text>

  
      <g transform="translate(40,180)">
        <rect width="280" height="180" rx="14" fill="#0c1c36" stroke="#1f3358" stroke-dasharray="0"></rect>
        <rect x="0" y="0" width="4" height="180" rx="2" fill="#d45a3a"></rect>

        <text x="24" y="36" fill="#5e7392" font-size="10" font-weight="700" font-family="ui-monospace,Menlo,monospace">MODULE 01</text>
        <text x="244" y="36" fill="#d45a3a" font-size="20" text-anchor="end">⚡</text>

        <text x="24" y="78" fill="#e6edf5" font-size="18" font-weight="700">AI Triage</text>
        <text x="24" y="100" fill="#8a9bb4" font-size="12">Auto-classify tickets across 7 dimensions</text>

        <line x1="24" y1="124" x2="256" y2="124" stroke="#1f3358"></line>

        <circle cx="32" cy="148" r="4" fill="#22c55e"></circle>
        <text x="44" y="152" fill="#a9b8d0" font-size="11" font-weight="600">reasoning attached</text>

        <text x="244" y="152" fill="#5e7392" font-size="11" text-anchor="end">configure ›</text>
      </g>
      <g transform="translate(336,180)">
        <rect width="280" height="180" rx="14" fill="#0c1c36" stroke="#1f3358" stroke-dasharray="0"></rect>
        <rect x="0" y="0" width="4" height="180" rx="2" fill="#60a5fa"></rect>

        <text x="24" y="36" fill="#5e7392" font-size="10" font-weight="700" font-family="ui-monospace,Menlo,monospace">MODULE 02</text>
        <text x="244" y="36" fill="#60a5fa" font-size="20" text-anchor="end">◎</text>

        <text x="24" y="78" fill="#e6edf5" font-size="18" font-weight="700">Needs Attention</text>
        <text x="24" y="100" fill="#8a9bb4" font-size="12">Composite scoring + dispatch board</text>

        <line x1="24" y1="124" x2="256" y2="124" stroke="#1f3358"></line>

        <circle cx="32" cy="148" r="4" fill="#22c55e"></circle>
        <text x="44" y="152" fill="#a9b8d0" font-size="11" font-weight="600">avg 4m to assign</text>

        <text x="244" y="152" fill="#5e7392" font-size="11" text-anchor="end">configure ›</text>
      </g>
      <g transform="translate(632,180)">
        <rect width="280" height="180" rx="14" fill="#0c1c36" stroke="#1f3358" stroke-dasharray="0"></rect>
        <rect x="0" y="0" width="4" height="180" rx="2" fill="#a78bfa"></rect>

        <text x="24" y="36" fill="#5e7392" font-size="10" font-weight="700" font-family="ui-monospace,Menlo,monospace">MODULE 03</text>
        <text x="244" y="36" fill="#a78bfa" font-size="20" text-anchor="end">⏵</text>

        <text x="24" y="78" fill="#e6edf5" font-size="18" font-weight="700">Pulse</text>
        <text x="24" y="100" fill="#8a9bb4" font-size="12">Huddle briefings + EOD posted to Teams</text>

        <line x1="24" y1="124" x2="256" y2="124" stroke="#1f3358"></line>

        <circle cx="32" cy="148" r="4" fill="#22c55e"></circle>
        <text x="44" y="152" fill="#a9b8d0" font-size="11" font-weight="600">cards live</text>

        <text x="244" y="152" fill="#5e7392" font-size="11" text-anchor="end">configure ›</text>
      </g>
      <g transform="translate(928,180)">
        <rect width="280" height="180" rx="14" fill="#0c1c36" stroke="#1f3358" stroke-dasharray="0"></rect>
        <rect x="0" y="0" width="4" height="180" rx="2" fill="#22c55e"></rect>

        <text x="24" y="36" fill="#5e7392" font-size="10" font-weight="700" font-family="ui-monospace,Menlo,monospace">MODULE 04</text>
        <text x="244" y="36" fill="#22c55e" font-size="20" text-anchor="end">⚐</text>

        <text x="24" y="78" fill="#e6edf5" font-size="18" font-weight="700">Field Ops</text>
        <text x="24" y="100" fill="#8a9bb4" font-size="12">Mobile check-in + status board</text>

        <line x1="24" y1="124" x2="256" y2="124" stroke="#1f3358"></line>

        <circle cx="32" cy="148" r="4" fill="#22c55e"></circle>
        <text x="44" y="152" fill="#a9b8d0" font-size="11" font-weight="600">12 techs synced</text>

        <text x="244" y="152" fill="#5e7392" font-size="11" text-anchor="end">configure ›</text>
      </g>
      <g transform="translate(40,380)">
        <rect width="280" height="180" rx="14" fill="#0c1c36" stroke="#1f3358" stroke-dasharray="0"></rect>
        <rect x="0" y="0" width="4" height="180" rx="2" fill="#eab308"></rect>

        <text x="24" y="36" fill="#5e7392" font-size="10" font-weight="700" font-family="ui-monospace,Menlo,monospace">MODULE 05</text>
        <text x="244" y="36" fill="#eab308" font-size="20" text-anchor="end">⬡</text>

        <text x="24" y="78" fill="#e6edf5" font-size="18" font-weight="700">Client Portal</text>
        <text x="24" y="100" fill="#8a9bb4" font-size="12">Branded ticket submit + status</text>

        <line x1="24" y1="124" x2="256" y2="124" stroke="#1f3358"></line>

        <circle cx="32" cy="148" r="4" fill="#22c55e"></circle>
        <text x="44" y="152" fill="#a9b8d0" font-size="11" font-weight="600">247 users</text>

        <text x="244" y="152" fill="#5e7392" font-size="11" text-anchor="end">configure ›</text>
      </g>
      <g transform="translate(336,380)">
        <rect width="280" height="180" rx="14" fill="#0c1c36" stroke="#1f3358" stroke-dasharray="0"></rect>
        <rect x="0" y="0" width="4" height="180" rx="2" fill="#ec4899"></rect>

        <text x="24" y="36" fill="#5e7392" font-size="10" font-weight="700" font-family="ui-monospace,Menlo,monospace">MODULE 06</text>
        <text x="244" y="36" fill="#ec4899" font-size="20" text-anchor="end">⚡</text>

        <text x="24" y="78" fill="#e6edf5" font-size="18" font-weight="700">Flash Ticket</text>
        <text x="24" y="100" fill="#8a9bb4" font-size="12">Quick-create for walk-ups + calls</text>

        <line x1="24" y1="124" x2="256" y2="124" stroke="#1f3358"></line>

        <circle cx="32" cy="148" r="4" fill="#22c55e"></circle>
        <text x="44" y="152" fill="#a9b8d0" font-size="11" font-weight="600">GoTo Connect linked</text>

        <text x="244" y="152" fill="#5e7392" font-size="11" text-anchor="end">configure ›</text>
      </g>
      <g transform="translate(632,380)">
        <rect width="280" height="180" rx="14" fill="#0c1c36" stroke="#1f3358" stroke-dasharray="0"></rect>
        <rect x="0" y="0" width="4" height="180" rx="2" fill="#06b6d4"></rect>

        <text x="24" y="36" fill="#5e7392" font-size="10" font-weight="700" font-family="ui-monospace,Menlo,monospace">MODULE 07</text>
        <text x="244" y="36" fill="#06b6d4" font-size="20" text-anchor="end">▤</text>

        <text x="24" y="78" fill="#e6edf5" font-size="18" font-weight="700">Reports</text>
        <text x="24" y="100" fill="#8a9bb4" font-size="12">CSAT, SLA, capacity exports</text>

        <line x1="24" y1="124" x2="256" y2="124" stroke="#1f3358"></line>

        <circle cx="32" cy="148" r="4" fill="#22c55e"></circle>
        <text x="44" y="152" fill="#a9b8d0" font-size="11" font-weight="600">5 scheduled</text>

        <text x="244" y="152" fill="#5e7392" font-size="11" text-anchor="end">configure ›</text>
      </g>
      <g transform="translate(928,380)">
        <rect width="280" height="180" rx="14" fill="#0c1c36" stroke="#1f3358" stroke-dasharray="4 4"></rect>
        <rect x="0" y="0" width="4" height="180" rx="2" fill="#5e7392"></rect>

        <text x="24" y="36" fill="#5e7392" font-size="10" font-weight="700" font-family="ui-monospace,Menlo,monospace">MODULE + </text>
        <text x="244" y="36" fill="#5e7392" font-size="20" text-anchor="end">+</text>

        <text x="24" y="78" fill="#e6edf5" font-size="18" font-weight="700">Add module</text>
        <text x="24" y="100" fill="#8a9bb4" font-size="12">Coming Q2: Procurement, KB Builder, IVR</text>

        <line x1="24" y1="124" x2="256" y2="124" stroke="#1f3358"></line>

        <circle cx="32" cy="148" r="4" fill="#8a9bb4"></circle>
        <text x="44" y="152" fill="#a9b8d0" font-size="11" font-weight="600">request access</text>

        <text x="244" y="152" fill="#5e7392" font-size="11" text-anchor="end">configure ›</text>
      </g>

</svg>