<svg xmlns="http://www.w3.org/2000/svg" viewBox="0 0 1280 800" preserveAspectRatio="xMidYMid slice" font-family="-apple-system, BlinkMacSystemFont, &#39;Segoe UI&#39;, system-ui, sans-serif">
<defs>
  <linearGradient id="bgGrad" x1="0" x2="0" y1="0" y2="1"><stop offset="0" stop-color="#0e1f3a"></stop><stop offset="1" stop-color="#091428"></stop></linearGradient>
</defs>
<rect width="1280" height="800" fill="url(#bgGrad)"></rect>

  <rect x="0" y="0" width="1280" height="56" fill="#06101f"></rect>
  <rect x="0" y="55" width="1280" height="1" fill="#1f3358"></rect>
  <circle cx="32" cy="28" r="9" fill="#d45a3a"></circle>
  <text x="50" y="33" fill="#e6edf5" font-size="14" font-weight="700" letter-spacing="0.04em">NOVA</text>
  <g fill="#8a9bb4" font-size="12" font-weight="600"><text x="140" y="33" fill="#8a9bb4">Home</text><text x="200" y="33" fill="#8a9bb4">Triage</text><text x="270" y="33" fill="#8a9bb4">Needs Attention</text><text x="385" y="33" fill="#e6edf5">Dispatch Queue</text><rect x="380" y="40" width="98" height="2" fill="#d45a3a"></rect><text x="495" y="33" fill="#8a9bb4">Pulse</text><text x="555" y="33" fill="#8a9bb4">Status</text></g>
  <circle cx="1230" cy="28" r="14" fill="#16294a" stroke="#1f3358"></circle>
  <text x="1230" y="33" fill="#8a9bb4" font-size="11" font-weight="700" text-anchor="middle">A</text>
  <text x="1200" y="33" fill="#8a9bb4" font-size="11" text-anchor="end">Avery</text>

  <text x="40" y="108" fill="#e6edf5" font-size="22" font-weight="700">Dispatch Queue · Holding Lanes</text>
  <text x="40" y="130" fill="#8a9bb4" font-size="12">42 tickets in motion · 6 lanes · drag to reroute · auto-graduates when conditions clear</text>

  
  <g transform="translate(820,98)">
    <rect width="100" height="30" rx="15" fill="#102545" stroke="#d45a3a"></rect>
    <text x="50" y="20" fill="#e6edf5" font-size="11" font-weight="600" text-anchor="middle">All techs</text>
    <rect x="108" y="0" width="100" height="30" rx="15" fill="#0c1c36" stroke="#1f3358"></rect>
    <text x="158" y="20" fill="#8a9bb4" font-size="11" text-anchor="middle">Today only</text>
    <rect x="216" y="0" width="100" height="30" rx="15" fill="#0c1c36" stroke="#1f3358"></rect>
    <text x="266" y="20" fill="#8a9bb4" font-size="11" text-anchor="middle">Gold SLA</text>
    <rect x="324" y="0" width="96" height="30" rx="15" fill="#0c1c36" stroke="#1f3358"></rect>
    <text x="372" y="20" fill="#8a9bb4" font-size="11" text-anchor="middle">+ Custom</text>
  </g>

  
      <g transform="translate(40,160)">
        
        <rect width="180" height="32" rx="8" fill="#0c1c36"></rect>
        <circle cx="14" cy="16" r="5" fill="#22c55e"></circle>
        <text x="28" y="20" fill="#e6edf5" font-size="12" font-weight="700">Active</text>
        <text x="166" y="20" fill="#8a9bb4" font-size="11" font-weight="600" text-anchor="end" font-family="ui-monospace,Menlo,monospace">8</text>

        
          <g transform="translate(0,42)">
            <rect width="180" height="112" rx="10" fill="#0f1e36" stroke="#1f3358"></rect>
            <text x="14" y="22" fill="#60a5fa" font-size="10" font-weight="700" font-family="ui-monospace,Menlo,monospace">T-48217</text>
            <rect x="138" y="10" width="32" height="16" rx="4" fill="#3b1818" stroke="#ef4444"></rect>
            <text x="154" y="21" fill="#ef4444" font-size="9" font-weight="800" text-anchor="middle">P2</text>

            <text x="14" y="46" fill="#e6edf5" font-size="12" font-weight="600">Acme</text>
            <text x="14" y="66" fill="#8a9bb4" font-size="11">Outlook disconnect</text>

            <line x1="14" y1="82" x2="166" y2="82" stroke="#1f3358"></line>
            <circle cx="22" cy="98" r="8" fill="#16294a"></circle>
            <text x="22" y="102" fill="#a9b8d0" font-size="9" font-weight="700" text-anchor="middle">D</text>
            <text x="36" y="102" fill="#8a9bb4" font-size="10">M.R.</text>
          </g>
          <g transform="translate(0,166)">
            <rect width="180" height="112" rx="10" fill="#0f1e36" stroke="#1f3358"></rect>
            <text x="14" y="22" fill="#60a5fa" font-size="10" font-weight="700" font-family="ui-monospace,Menlo,monospace">T-48213</text>
            <rect x="138" y="10" width="32" height="16" rx="4" fill="#3b1818" stroke="#ef4444"></rect>
            <text x="154" y="21" fill="#ef4444" font-size="9" font-weight="800" text-anchor="middle">P2</text>

            <text x="14" y="46" fill="#e6edf5" font-size="12" font-weight="600">Acme</text>
            <text x="14" y="66" fill="#8a9bb4" font-size="11">Backup failed FS-02</text>

            <line x1="14" y1="82" x2="166" y2="82" stroke="#1f3358"></line>
            <circle cx="22" cy="98" r="8" fill="#16294a"></circle>
            <text x="22" y="102" fill="#a9b8d0" font-size="9" font-weight="700" text-anchor="middle">S</text>
            <text x="36" y="102" fill="#8a9bb4" font-size="10">S.L.</text>
          </g>
          <g transform="translate(0,290)">
            <rect width="180" height="112" rx="10" fill="#0f1e36" stroke="#1f3358"></rect>
            <text x="14" y="22" fill="#60a5fa" font-size="10" font-weight="700" font-family="ui-monospace,Menlo,monospace">T-48198</text>
            <rect x="138" y="10" width="32" height="16" rx="4" fill="#2a2509" stroke="#eab308"></rect>
            <text x="154" y="21" fill="#eab308" font-size="9" font-weight="800" text-anchor="middle">P3</text>

            <text x="14" y="46" fill="#e6edf5" font-size="12" font-weight="600">Northwind</text>
            <text x="14" y="66" fill="#8a9bb4" font-size="11">VPN config branch</text>

            <line x1="14" y1="82" x2="166" y2="82" stroke="#1f3358"></line>
            <circle cx="22" cy="98" r="8" fill="#16294a"></circle>
            <text x="22" y="102" fill="#a9b8d0" font-size="9" font-weight="700" text-anchor="middle">D</text>
            <text x="36" y="102" fill="#8a9bb4" font-size="10">M.R.</text>
          </g>

        
        
          <g transform="translate(0,414)">
            <rect width="180" height="32" rx="8" fill="transparent" stroke="#1f3358" stroke-dasharray="4 4"></rect>
            <text x="90" y="20" fill="#5e7392" font-size="10" text-anchor="middle">+5 more</text>
          </g>
      </g>
      <g transform="translate(240,160)">
        
        <rect width="180" height="32" rx="8" fill="#0c1c36"></rect>
        <circle cx="14" cy="16" r="5" fill="#eab308"></circle>
        <text x="28" y="20" fill="#e6edf5" font-size="12" font-weight="700">Awaiting Client</text>
        <text x="166" y="20" fill="#8a9bb4" font-size="11" font-weight="600" text-anchor="end" font-family="ui-monospace,Menlo,monospace">5</text>

        
          <g transform="translate(0,42)">
            <rect width="180" height="112" rx="10" fill="#0f1e36" stroke="#1f3358"></rect>
            <text x="14" y="22" fill="#60a5fa" font-size="10" font-weight="700" font-family="ui-monospace,Menlo,monospace">T-48201</text>
            <rect x="138" y="10" width="32" height="16" rx="4" fill="#2a2509" stroke="#eab308"></rect>
            <text x="154" y="21" fill="#eab308" font-size="9" font-weight="800" text-anchor="middle">P3</text>

            <text x="14" y="46" fill="#e6edf5" font-size="12" font-weight="600">Mercer</text>
            <text x="14" y="66" fill="#8a9bb4" font-size="11">Server reboot verify</text>

            <line x1="14" y1="82" x2="166" y2="82" stroke="#1f3358"></line>
            <circle cx="22" cy="98" r="8" fill="#16294a"></circle>
            <text x="22" y="102" fill="#a9b8d0" font-size="9" font-weight="700" text-anchor="middle">D</text>
            <text x="36" y="102" fill="#8a9bb4" font-size="10">M.R.</text>
          </g>
          <g transform="translate(0,166)">
            <rect width="180" height="112" rx="10" fill="#0f1e36" stroke="#1f3358"></rect>
            <text x="14" y="22" fill="#60a5fa" font-size="10" font-weight="700" font-family="ui-monospace,Menlo,monospace">T-48189</text>
            <rect x="138" y="10" width="32" height="16" rx="4" fill="#0f2030" stroke="#60a5fa"></rect>
            <text x="154" y="21" fill="#60a5fa" font-size="9" font-weight="800" text-anchor="middle">P4</text>

            <text x="14" y="46" fill="#e6edf5" font-size="12" font-weight="600">Greenfield</text>
            <text x="14" y="66" fill="#8a9bb4" font-size="11">Confirm 2 PM onsite</text>

            <line x1="14" y1="82" x2="166" y2="82" stroke="#1f3358"></line>
            <circle cx="22" cy="98" r="8" fill="#16294a"></circle>
            <text x="22" y="102" fill="#a9b8d0" font-size="9" font-weight="700" text-anchor="middle">D</text>
            <text x="36" y="102" fill="#8a9bb4" font-size="10">M.R.</text>
          </g>

        
        
          <g transform="translate(0,290)">
            <rect width="180" height="32" rx="8" fill="transparent" stroke="#1f3358" stroke-dasharray="4 4"></rect>
            <text x="90" y="20" fill="#5e7392" font-size="10" text-anchor="middle">+3 more</text>
          </g>
      </g>
      <g transform="translate(440,160)">
        
        <rect width="180" height="32" rx="8" fill="#0c1c36"></rect>
        <circle cx="14" cy="16" r="5" fill="#a78bfa"></circle>
        <text x="28" y="20" fill="#e6edf5" font-size="12" font-weight="700">Scheduled</text>
        <text x="166" y="20" fill="#8a9bb4" font-size="11" font-weight="600" text-anchor="end" font-family="ui-monospace,Menlo,monospace">7</text>

        
          <g transform="translate(0,42)">
            <rect width="180" height="112" rx="10" fill="#0f1e36" stroke="#1f3358"></rect>
            <text x="14" y="22" fill="#60a5fa" font-size="10" font-weight="700" font-family="ui-monospace,Menlo,monospace">T-48189</text>
            <rect x="138" y="10" width="32" height="16" rx="4" fill="#0f2030" stroke="#60a5fa"></rect>
            <text x="154" y="21" fill="#60a5fa" font-size="9" font-weight="800" text-anchor="middle">P4</text>

            <text x="14" y="46" fill="#e6edf5" font-size="12" font-weight="600">Greenfield</text>
            <text x="14" y="66" fill="#8a9bb4" font-size="11">Printer audit · 2 PM</text>

            <line x1="14" y1="82" x2="166" y2="82" stroke="#1f3358"></line>
            <circle cx="22" cy="98" r="8" fill="#16294a"></circle>
            <text x="22" y="102" fill="#a9b8d0" font-size="9" font-weight="700" text-anchor="middle">D</text>
            <text x="36" y="102" fill="#8a9bb4" font-size="10">M.R.</text>
          </g>
          <g transform="translate(0,166)">
            <rect width="180" height="112" rx="10" fill="#0f1e36" stroke="#1f3358"></rect>
            <text x="14" y="22" fill="#60a5fa" font-size="10" font-weight="700" font-family="ui-monospace,Menlo,monospace">T-48155</text>
            <rect x="138" y="10" width="32" height="16" rx="4" fill="#2a2509" stroke="#eab308"></rect>
            <text x="154" y="21" fill="#eab308" font-size="9" font-weight="800" text-anchor="middle">P3</text>

            <text x="14" y="46" fill="#e6edf5" font-size="12" font-weight="600">Pinewood</text>
            <text x="14" y="66" fill="#8a9bb4" font-size="11">After-hours patch · 8 PM</text>

            <line x1="14" y1="82" x2="166" y2="82" stroke="#1f3358"></line>
            <circle cx="22" cy="98" r="8" fill="#16294a"></circle>
            <text x="22" y="102" fill="#a9b8d0" font-size="9" font-weight="700" text-anchor="middle">J</text>
            <text x="36" y="102" fill="#8a9bb4" font-size="10">J.D.</text>
          </g>

        
        
          <g transform="translate(0,290)">
            <rect width="180" height="32" rx="8" fill="transparent" stroke="#1f3358" stroke-dasharray="4 4"></rect>
            <text x="90" y="20" fill="#5e7392" font-size="10" text-anchor="middle">+5 more</text>
          </g>
      </g>
      <g transform="translate(640,160)">
        
        <rect width="180" height="32" rx="8" fill="#0c1c36"></rect>
        <circle cx="14" cy="16" r="5" fill="#ef4444"></circle>
        <text x="28" y="20" fill="#e6edf5" font-size="12" font-weight="700">Blocked</text>
        <text x="166" y="20" fill="#8a9bb4" font-size="11" font-weight="600" text-anchor="end" font-family="ui-monospace,Menlo,monospace">3</text>

        
          <g transform="translate(0,42)">
            <rect width="180" height="112" rx="10" fill="#0f1e36" stroke="#1f3358"></rect>
            <text x="14" y="22" fill="#60a5fa" font-size="10" font-weight="700" font-family="ui-monospace,Menlo,monospace">T-48168</text>
            <rect x="138" y="10" width="32" height="16" rx="4" fill="#2a2509" stroke="#eab308"></rect>
            <text x="154" y="21" fill="#eab308" font-size="9" font-weight="800" text-anchor="middle">P3</text>

            <text x="14" y="46" fill="#e6edf5" font-size="12" font-weight="600">Mercer</text>
            <text x="14" y="66" fill="#8a9bb4" font-size="11">Vendor RMA pending</text>

            <line x1="14" y1="82" x2="166" y2="82" stroke="#1f3358"></line>
            <circle cx="22" cy="98" r="8" fill="#16294a"></circle>
            <text x="22" y="102" fill="#a9b8d0" font-size="9" font-weight="700" text-anchor="middle">S</text>
            <text x="36" y="102" fill="#8a9bb4" font-size="10">S.L.</text>
          </g>
          <g transform="translate(0,166)">
            <rect width="180" height="112" rx="10" fill="#0f1e36" stroke="#1f3358"></rect>
            <text x="14" y="22" fill="#60a5fa" font-size="10" font-weight="700" font-family="ui-monospace,Menlo,monospace">T-48142</text>
            <rect x="138" y="10" width="32" height="16" rx="4" fill="#2a2509" stroke="#eab308"></rect>
            <text x="154" y="21" fill="#eab308" font-size="9" font-weight="800" text-anchor="middle">P3</text>

            <text x="14" y="46" fill="#e6edf5" font-size="12" font-weight="600">Acme</text>
            <text x="14" y="66" fill="#8a9bb4" font-size="11">Hardware on order</text>

            <line x1="14" y1="82" x2="166" y2="82" stroke="#1f3358"></line>
            <circle cx="22" cy="98" r="8" fill="#16294a"></circle>
            <text x="22" y="102" fill="#a9b8d0" font-size="9" font-weight="700" text-anchor="middle">P</text>
            <text x="36" y="102" fill="#8a9bb4" font-size="10">P.N.</text>
          </g>

        
        
          <g transform="translate(0,290)">
            <rect width="180" height="32" rx="8" fill="transparent" stroke="#1f3358" stroke-dasharray="4 4"></rect>
            <text x="90" y="20" fill="#5e7392" font-size="10" text-anchor="middle">+1 more</text>
          </g>
      </g>
      <g transform="translate(840,160)">
        
        <rect width="180" height="32" rx="8" fill="#0c1c36"></rect>
        <circle cx="14" cy="16" r="5" fill="#60a5fa"></circle>
        <text x="28" y="20" fill="#e6edf5" font-size="12" font-weight="700">On Site Required</text>
        <text x="166" y="20" fill="#8a9bb4" font-size="11" font-weight="600" text-anchor="end" font-family="ui-monospace,Menlo,monospace">4</text>

        
          <g transform="translate(0,42)">
            <rect width="180" height="112" rx="10" fill="#0f1e36" stroke="#1f3358"></rect>
            <text x="14" y="22" fill="#60a5fa" font-size="10" font-weight="700" font-family="ui-monospace,Menlo,monospace">T-48189</text>
            <rect x="138" y="10" width="32" height="16" rx="4" fill="#3b1818" stroke="#ef4444"></rect>
            <text x="154" y="21" fill="#ef4444" font-size="9" font-weight="800" text-anchor="middle">P1</text>

            <text x="14" y="46" fill="#e6edf5" font-size="12" font-weight="600">Greenfield</text>
            <text x="14" y="66" fill="#8a9bb4" font-size="11">Printer 3rd floor</text>

            <line x1="14" y1="82" x2="166" y2="82" stroke="#1f3358"></line>
            <circle cx="22" cy="98" r="8" fill="#16294a"></circle>
            <text x="22" y="102" fill="#a9b8d0" font-size="9" font-weight="700" text-anchor="middle">D</text>
            <text x="36" y="102" fill="#8a9bb4" font-size="10">M.R.</text>
          </g>
          <g transform="translate(0,166)">
            <rect width="180" height="112" rx="10" fill="#0f1e36" stroke="#1f3358"></rect>
            <text x="14" y="22" fill="#60a5fa" font-size="10" font-weight="700" font-family="ui-monospace,Menlo,monospace">T-48177</text>
            <rect x="138" y="10" width="32" height="16" rx="4" fill="#2a2509" stroke="#eab308"></rect>
            <text x="154" y="21" fill="#eab308" font-size="9" font-weight="800" text-anchor="middle">P3</text>

            <text x="14" y="46" fill="#e6edf5" font-size="12" font-weight="600">Pinewood</text>
            <text x="14" y="66" fill="#8a9bb4" font-size="11">Operatory 4 Wi-Fi</text>

            <line x1="14" y1="82" x2="166" y2="82" stroke="#1f3358"></line>
            <circle cx="22" cy="98" r="8" fill="#16294a"></circle>
            <text x="22" y="102" fill="#a9b8d0" font-size="9" font-weight="700" text-anchor="middle">—</text>
            <text x="36" y="102" fill="#8a9bb4" font-size="10">—</text>
          </g>

        
        
          <g transform="translate(0,290)">
            <rect width="180" height="32" rx="8" fill="transparent" stroke="#1f3358" stroke-dasharray="4 4"></rect>
            <text x="90" y="20" fill="#5e7392" font-size="10" text-anchor="middle">+2 more</text>
          </g>
      </g>
      <g transform="translate(1040,160)">
        
        <rect width="180" height="32" rx="8" fill="#0c1c36"></rect>
        <circle cx="14" cy="16" r="5" fill="#8a9bb4"></circle>
        <text x="28" y="20" fill="#e6edf5" font-size="12" font-weight="700">Snoozed</text>
        <text x="166" y="20" fill="#8a9bb4" font-size="11" font-weight="600" text-anchor="end" font-family="ui-monospace,Menlo,monospace">6</text>

        
          <g transform="translate(0,42)">
            <rect width="180" height="112" rx="10" fill="#0f1e36" stroke="#1f3358"></rect>
            <text x="14" y="22" fill="#60a5fa" font-size="10" font-weight="700" font-family="ui-monospace,Menlo,monospace">T-48099</text>
            <rect x="138" y="10" width="32" height="16" rx="4" fill="#0f2030" stroke="#60a5fa"></rect>
            <text x="154" y="21" fill="#60a5fa" font-size="9" font-weight="800" text-anchor="middle">P4</text>

            <text x="14" y="46" fill="#e6edf5" font-size="12" font-weight="600">Acme</text>
            <text x="14" y="66" fill="#8a9bb4" font-size="11">Recurring · 1 wk</text>

            <line x1="14" y1="82" x2="166" y2="82" stroke="#1f3358"></line>
            <circle cx="22" cy="98" r="8" fill="#16294a"></circle>
            <text x="22" y="102" fill="#a9b8d0" font-size="9" font-weight="700" text-anchor="middle">—</text>
            <text x="36" y="102" fill="#8a9bb4" font-size="10">—</text>
          </g>
          <g transform="translate(0,166)">
            <rect width="180" height="112" rx="10" fill="#0f1e36" stroke="#1f3358"></rect>
            <text x="14" y="22" fill="#60a5fa" font-size="10" font-weight="700" font-family="ui-monospace,Menlo,monospace">T-48081</text>
            <rect x="138" y="10" width="32" height="16" rx="4" fill="#0f2030" stroke="#60a5fa"></rect>
            <text x="154" y="21" fill="#60a5fa" font-size="9" font-weight="800" text-anchor="middle">P4</text>

            <text x="14" y="46" fill="#e6edf5" font-size="12" font-weight="600">Mercer</text>
            <text x="14" y="66" fill="#8a9bb4" font-size="11">Vendor next Tue</text>

            <line x1="14" y1="82" x2="166" y2="82" stroke="#1f3358"></line>
            <circle cx="22" cy="98" r="8" fill="#16294a"></circle>
            <text x="22" y="102" fill="#a9b8d0" font-size="9" font-weight="700" text-anchor="middle">—</text>
            <text x="36" y="102" fill="#8a9bb4" font-size="10">—</text>
          </g>

        
        
          <g transform="translate(0,290)">
            <rect width="180" height="32" rx="8" fill="transparent" stroke="#1f3358" stroke-dasharray="4 4"></rect>
            <text x="90" y="20" fill="#5e7392" font-size="10" text-anchor="middle">+4 more</text>
          </g>
      </g>

</svg>