<svg xmlns="http://www.w3.org/2000/svg" viewBox="0 0 1280 800" preserveAspectRatio="xMidYMid slice" font-family="-apple-system, BlinkMacSystemFont, &#39;Segoe UI&#39;, system-ui, sans-serif">
<defs>
  <linearGradient id="bgGrad" x1="0" x2="0" y1="0" y2="1"><stop offset="0" stop-color="#0e1f3a"></stop><stop offset="1" stop-color="#091428"></stop></linearGradient>
</defs>
<rect width="1280" height="800" fill="url(#bgGrad)"></rect>
<rect x="0" y="0" width="1280" height="56" fill="#06101f"></rect>
  <rect x="0" y="55" width="1280" height="1" fill="#1f3358"></rect>
  <circle cx="32" cy="28" r="9" fill="#d45a3a"></circle>
  <text x="50" y="33" fill="#e6edf5" font-size="14" font-weight="700" letter-spacing="0.04em">NOVA</text>
  <g fill="#8a9bb4" font-size="12" font-weight="600">
    <text x="140" y="33">Home</text><text x="200" y="33">Triage</text>
    <text x="270" y="33">Needs Attention</text><text x="385" y="33">Dispatch Queue</text>
    <text x="495" y="33">Pulse</text><text x="555" y="33">Status</text>
    </g>
  <circle cx="1230" cy="28" r="14" fill="#16294a" stroke="#1f3358"></circle>
  <text x="1230" y="33" fill="#8a9bb4" font-size="11" font-weight="700" text-anchor="middle">A</text>
  <text x="1200" y="33" fill="#8a9bb4" font-size="11" text-anchor="end">Avery</text>

  <text x="40" y="108" fill="#e6edf5" font-size="22" font-weight="700">Integrations</text>
  <text x="40" y="130" fill="#8a9bb4" font-size="12">8 connected · 2 needing attention · 4 available · last sync 12s ago</text>

  
  <g transform="translate(40,160)">
    <rect width="1200" height="64" rx="14" fill="#0c1c36" stroke="#1f3358"></rect>
    <circle cx="32" cy="32" r="10" fill="#22c55e"></circle>
    <path d="M26 32l4 4 8-8" stroke="#0c1c36" stroke-width="2.5" fill="none" stroke-linecap="round" stroke-linejoin="round"></path>
    <text x="56" y="28" fill="#e6edf5" font-size="14" font-weight="700">All systems operational</text>
    <text x="56" y="46" fill="#8a9bb4" font-size="11">8 active integrations · 2 warnings · 0 errors · webhooks healthy</text>

    <text x="900" y="38" fill="#5e7392" font-size="11" text-anchor="end">Next scheduled sync</text>
    <text x="1180" y="38" fill="#a9b8d0" font-size="11" font-weight="600" text-anchor="end" font-family="ui-monospace,Menlo,monospace">in 18s</text>
  </g>

  
  <text x="40" y="252" fill="#5e7392" font-size="11" font-weight="700" letter-spacing="0.08em">CONNECTED · 8</text>

  <g transform="translate(40,266)">
    
      <g transform="translate(0,0)">
        <rect width="280" height="132" rx="12" fill="#0c1c36" stroke="#1f3358"></rect>
        <rect x="20" y="20" width="44" height="44" rx="10" fill="#3b82f6"></rect>
        <text x="42" y="48" fill="#fff" font-size="13" font-weight="800" text-anchor="middle">AT</text>

        <text x="76" y="36" fill="#e6edf5" font-size="14" font-weight="700">Autotask</text>
        <text x="76" y="52" fill="#8a9bb4" font-size="11">PSA · core</text>

        <line x1="20" y1="80" x2="260" y2="80" stroke="#1f3358"></line>

        <circle cx="28" cy="104" r="4" fill="#22c55e">
          
        </circle>
        <text x="40" y="108" fill="#a9b8d0" font-size="11" font-weight="500">adaptive sync</text>
        <text x="260" y="108" fill="#5e7392" font-size="11" text-anchor="end">⚙</text>
      </g>
      <g transform="translate(296,0)">
        <rect width="280" height="132" rx="12" fill="#0c1c36" stroke="#1f3358"></rect>
        <rect x="20" y="20" width="44" height="44" rx="10" fill="#7c3aed"></rect>
        <text x="42" y="48" fill="#fff" font-size="13" font-weight="800" text-anchor="middle">MS</text>

        <text x="76" y="36" fill="#e6edf5" font-size="14" font-weight="700">Microsoft Teams</text>
        <text x="76" y="52" fill="#8a9bb4" font-size="11">Notifications + DMs</text>

        <line x1="20" y1="80" x2="260" y2="80" stroke="#1f3358"></line>

        <circle cx="28" cy="104" r="4" fill="#22c55e">
          
        </circle>
        <text x="40" y="108" fill="#a9b8d0" font-size="11" font-weight="500">12 channels active</text>
        <text x="260" y="108" fill="#5e7392" font-size="11" text-anchor="end">⚙</text>
      </g>
      <g transform="translate(592,0)">
        <rect width="280" height="132" rx="12" fill="#0c1c36" stroke="#1f3358"></rect>
        <rect x="20" y="20" width="44" height="44" rx="10" fill="#0078d4"></rect>
        <text x="42" y="48" fill="#fff" font-size="13" font-weight="800" text-anchor="middle">EN</text>

        <text x="76" y="36" fill="#e6edf5" font-size="14" font-weight="700">Microsoft Entra ID</text>
        <text x="76" y="52" fill="#8a9bb4" font-size="11">SSO + provisioning</text>

        <line x1="20" y1="80" x2="260" y2="80" stroke="#1f3358"></line>

        <circle cx="28" cy="104" r="4" fill="#22c55e">
          
        </circle>
        <text x="40" y="108" fill="#a9b8d0" font-size="11" font-weight="500">247 users synced</text>
        <text x="260" y="108" fill="#5e7392" font-size="11" text-anchor="end">⚙</text>
      </g>
      <g transform="translate(888,0)">
        <rect width="280" height="132" rx="12" fill="#0c1c36" stroke="#1f3358"></rect>
        <rect x="20" y="20" width="44" height="44" rx="10" fill="#d45a3a"></rect>
        <text x="42" y="48" fill="#fff" font-size="13" font-weight="800" text-anchor="middle">AI</text>

        <text x="76" y="36" fill="#e6edf5" font-size="14" font-weight="700">Anthropic Claude</text>
        <text x="76" y="52" fill="#8a9bb4" font-size="11">AI · BYO key</text>

        <line x1="20" y1="80" x2="260" y2="80" stroke="#1f3358"></line>

        <circle cx="28" cy="104" r="4" fill="#22c55e">
          
        </circle>
        <text x="40" y="108" fill="#a9b8d0" font-size="11" font-weight="500">Anthropic · BYO key</text>
        <text x="260" y="108" fill="#5e7392" font-size="11" text-anchor="end">⚙</text>
      </g>
      <g transform="translate(0,148)">
        <rect width="280" height="132" rx="12" fill="#0c1c36" stroke="#eab308"></rect>
        <rect x="20" y="20" width="44" height="44" rx="10" fill="#06b6d4"></rect>
        <text x="42" y="48" fill="#fff" font-size="13" font-weight="800" text-anchor="middle">CI</text>

        <text x="76" y="36" fill="#e6edf5" font-size="14" font-weight="700">CIPP</text>
        <text x="76" y="52" fill="#8a9bb4" font-size="11">M365 management</text>

        <line x1="20" y1="80" x2="260" y2="80" stroke="#1f3358"></line>

        <circle cx="28" cy="104" r="4" fill="#eab308">
          
        </circle>
        <text x="40" y="108" fill="#eab308" font-size="11" font-weight="600">webhook flapping</text>
        <text x="260" y="108" fill="#5e7392" font-size="11" text-anchor="end">⚙</text>
      </g>
      <g transform="translate(296,148)">
        <rect width="280" height="132" rx="12" fill="#0c1c36" stroke="#eab308"></rect>
        <rect x="20" y="20" width="44" height="44" rx="10" fill="#10b981"></rect>
        <text x="42" y="48" fill="#fff" font-size="13" font-weight="800" text-anchor="middle">CB</text>

        <text x="76" y="36" fill="#e6edf5" font-size="14" font-weight="700">ConnectBooster</text>
        <text x="76" y="52" fill="#8a9bb4" font-size="11">Billing + invoicing</text>

        <line x1="20" y1="80" x2="260" y2="80" stroke="#1f3358"></line>

        <circle cx="28" cy="104" r="4" fill="#eab308">
          
        </circle>
        <text x="40" y="108" fill="#eab308" font-size="11" font-weight="600">last sync 4h ago</text>
        <text x="260" y="108" fill="#5e7392" font-size="11" text-anchor="end">⚙</text>
      </g>
      <g transform="translate(592,148)">
        <rect width="280" height="132" rx="12" fill="#0c1c36" stroke="#1f3358"></rect>
        <rect x="20" y="20" width="44" height="44" rx="10" fill="#fbbf24"></rect>
        <text x="42" y="48" fill="#fff" font-size="13" font-weight="800" text-anchor="middle">GC</text>

        <text x="76" y="36" fill="#e6edf5" font-size="14" font-weight="700">GoTo Connect</text>
        <text x="76" y="52" fill="#8a9bb4" font-size="11">Phone · auto-detect</text>

        <line x1="20" y1="80" x2="260" y2="80" stroke="#1f3358"></line>

        <circle cx="28" cy="104" r="4" fill="#22c55e">
          
        </circle>
        <text x="40" y="108" fill="#a9b8d0" font-size="11" font-weight="500">live · 3 calls today</text>
        <text x="260" y="108" fill="#5e7392" font-size="11" text-anchor="end">⚙</text>
      </g>
      <g transform="translate(888,148)">
        <rect width="280" height="132" rx="12" fill="#0c1c36" stroke="#1f3358"></rect>
        <rect x="20" y="20" width="44" height="44" rx="10" fill="#ef4444"></rect>
        <text x="42" y="48" fill="#fff" font-size="13" font-weight="800" text-anchor="middle">IG</text>

        <text x="76" y="36" fill="#e6edf5" font-size="14" font-weight="700">IT Glue</text>
        <text x="76" y="52" fill="#8a9bb4" font-size="11">Documentation</text>

        <line x1="20" y1="80" x2="260" y2="80" stroke="#1f3358"></line>

        <circle cx="28" cy="104" r="4" fill="#22c55e">
          
        </circle>
        <text x="40" y="108" fill="#a9b8d0" font-size="11" font-weight="500">read-only · 2.1k assets</text>
        <text x="260" y="108" fill="#5e7392" font-size="11" text-anchor="end">⚙</text>
      </g>
  </g>

  
  <text x="40" y="606" fill="#5e7392" font-size="11" font-weight="700" letter-spacing="0.08em">AVAILABLE · 4</text>

  <g transform="translate(40,620)">
    
      <g transform="translate(0,0)">
        <rect width="184" height="96" rx="12" fill="#0a1830" stroke="#1f3358" stroke-dasharray="4 4"></rect>
        <rect x="20" y="20" width="36" height="36" rx="8" fill="#4a154b" opacity="0.4"></rect>
        <text x="38" y="42" fill="#fff" font-size="11" font-weight="800" text-anchor="middle" opacity="0.7">SL</text>

        <text x="68" y="32" fill="#a9b8d0" font-size="13" font-weight="600">Slack</text>
        <text x="68" y="50" fill="#5e7392" font-size="11">not connected</text>

        <rect x="20" y="68" width="144" height="20" rx="6" fill="rgba(212,90,58,0.12)" stroke="#d45a3a" stroke-width="0.8"></rect>
        <text x="92" y="82" fill="#d45a3a" font-size="10" font-weight="700" text-anchor="middle">+ Connect</text>
      </g>
      <g transform="translate(200,0)">
        <rect width="184" height="96" rx="12" fill="#0a1830" stroke="#1f3358" stroke-dasharray="4 4"></rect>
        <rect x="20" y="20" width="36" height="36" rx="8" fill="#06ac38" opacity="0.4"></rect>
        <text x="38" y="42" fill="#fff" font-size="11" font-weight="800" text-anchor="middle" opacity="0.7">PD</text>

        <text x="68" y="32" fill="#a9b8d0" font-size="13" font-weight="600">PagerDuty</text>
        <text x="68" y="50" fill="#5e7392" font-size="11">not connected</text>

        <rect x="20" y="68" width="144" height="20" rx="6" fill="rgba(212,90,58,0.12)" stroke="#d45a3a" stroke-width="0.8"></rect>
        <text x="92" y="82" fill="#d45a3a" font-size="10" font-weight="700" text-anchor="middle">+ Connect</text>
      </g>
      <g transform="translate(400,0)">
        <rect width="184" height="96" rx="12" fill="#0a1830" stroke="#1f3358" stroke-dasharray="4 4"></rect>
        <rect x="20" y="20" width="36" height="36" rx="8" fill="#1e40af" opacity="0.4"></rect>
        <text x="38" y="42" fill="#fff" font-size="11" font-weight="800" text-anchor="middle" opacity="0.7">DR</text>

        <text x="68" y="32" fill="#a9b8d0" font-size="13" font-weight="600">Datto RMM</text>
        <text x="68" y="50" fill="#5e7392" font-size="11">not connected</text>

        <rect x="20" y="68" width="144" height="20" rx="6" fill="rgba(212,90,58,0.12)" stroke="#d45a3a" stroke-width="0.8"></rect>
        <text x="92" y="82" fill="#d45a3a" font-size="10" font-weight="700" text-anchor="middle">+ Connect</text>
      </g>
      <g transform="translate(600,0)">
        <rect width="184" height="96" rx="12" fill="#0a1830" stroke="#1f3358" stroke-dasharray="4 4"></rect>
        <rect x="20" y="20" width="36" height="36" rx="8" fill="#d97706" opacity="0.4"></rect>
        <text x="38" y="42" fill="#fff" font-size="11" font-weight="800" text-anchor="middle" opacity="0.7">AU</text>

        <text x="68" y="32" fill="#a9b8d0" font-size="13" font-weight="600">Auvik</text>
        <text x="68" y="50" fill="#5e7392" font-size="11">not connected</text>

        <rect x="20" y="68" width="144" height="20" rx="6" fill="rgba(212,90,58,0.12)" stroke="#d45a3a" stroke-width="0.8"></rect>
        <text x="92" y="82" fill="#d45a3a" font-size="10" font-weight="700" text-anchor="middle">+ Connect</text>
      </g>

    <g transform="translate(840,0)">
      <rect width="320" height="96" rx="12" fill="#0a1830" stroke="#1f3358" stroke-dasharray="4 4"></rect>
      <text x="20" y="36" fill="#a9b8d0" font-size="13" font-weight="600">Custom webhook</text>
      <text x="20" y="56" fill="#5e7392" font-size="11">POST any event into Nova · auth via API key</text>
      <text x="20" y="80" fill="#60a5fa" font-size="11" font-weight="600">View docs →</text>
    </g>
  </g>

</svg>