<svg xmlns="http://www.w3.org/2000/svg" viewBox="0 0 1280 800" preserveAspectRatio="xMidYMid slice" font-family="-apple-system, BlinkMacSystemFont, &#39;Segoe UI&#39;, system-ui, sans-serif">
<defs>
  <linearGradient id="bgGrad" x1="0" x2="0" y1="0" y2="1"><stop offset="0" stop-color="#0e1f3a"></stop><stop offset="1" stop-color="#091428"></stop></linearGradient>
</defs>
<rect width="1280" height="800" fill="url(#bgGrad)"></rect>
<rect x="0" y="0" width="1280" height="56" fill="#06101f"></rect>
  <rect x="0" y="55" width="1280" height="1" fill="#1f3358"></rect>
  <circle cx="32" cy="28" r="9" fill="#d45a3a"></circle>
  <text x="50" y="33" fill="#e6edf5" font-size="14" font-weight="700" letter-spacing="0.04em">NOVA</text>
  <g fill="#8a9bb4" font-size="12" font-weight="600"><text x="140" y="33" fill="#8a9bb4">Home</text><text x="200" y="33" fill="#8a9bb4">Triage</text><text x="270" y="33" fill="#8a9bb4">Needs Attention</text><text x="385" y="33" fill="#8a9bb4">Dispatch Queue</text><text x="495" y="33" fill="#8a9bb4">Pulse</text><text x="555" y="33" fill="#8a9bb4">Status</text></g>
  <circle cx="1230" cy="28" r="14" fill="#16294a" stroke="#1f3358"></circle>
  <text x="1230" y="33" fill="#8a9bb4" font-size="11" font-weight="700" text-anchor="middle">A</text>
  <text x="1200" y="33" fill="#8a9bb4" font-size="11" text-anchor="end">Avery</text>

  <text x="40" y="108" fill="#e6edf5" font-size="22" font-weight="700">Billing &amp; Usage · Northwind MSP</text>
  <text x="40" y="130" fill="#8a9bb4" font-size="12">Plan: Pro · 12 techs · billing cycle Jan 1 → Jan 31 · auto-renew on</text>

  
  <g transform="translate(40,160)">
    <rect width="600" height="200" rx="16" fill="#0c1c36" stroke="#1f3358"></rect>
    <rect x="0" y="0" width="6" height="200" rx="3" fill="#d45a3a"></rect>

    <text x="32" y="40" fill="#5e7392" font-size="11" font-weight="700" letter-spacing="0.08em">CURRENT PLAN</text>
    <text x="32" y="80" fill="#e6edf5" font-size="36" font-weight="700">Nova Pro</text>
    <text x="32" y="108" fill="#8a9bb4" font-size="13">All modules · unlimited tickets · BYO Anthropic key</text>

    <line x1="32" y1="130" x2="568" y2="130" stroke="#1f3358"></line>

    <text x="32" y="160" fill="#5e7392" font-size="10">FLAT</text>
    <text x="32" y="184" fill="#e6edf5" font-size="22" font-weight="700" font-family="ui-monospace,Menlo,monospace">$1,200/mo</text>

    <text x="220" y="160" fill="#5e7392" font-size="10">INFRA</text>
    <text x="220" y="184" fill="#e6edf5" font-size="22" font-weight="700" font-family="ui-monospace,Menlo,monospace">~$30/mo</text>

    <text x="380" y="160" fill="#5e7392" font-size="10">AI USAGE (BYO)</text>
    <text x="380" y="184" fill="#e6edf5" font-size="22" font-weight="700" font-family="ui-monospace,Menlo,monospace">$87.42</text>
  </g>

  
  <g transform="translate(660,160)">
    <text x="0" y="-12" fill="#5e7392" font-size="11" font-weight="700" letter-spacing="0.08em">THIS CYCLE · 18 OF 31 DAYS</text>
    <rect width="580" height="200" rx="16" fill="#0c1c36" stroke="#1f3358"></rect>

    
      <g transform="translate(24,32)">
        <text x="0" y="0" fill="#a9b8d0" font-size="12" font-weight="600">Tickets triaged</text>
        <text x="532" y="0" fill="#e6edf5" font-size="13" font-weight="700" text-anchor="end" font-family="ui-monospace,Menlo,monospace">18,247</text>
        <rect x="0" y="14" width="532" height="6" rx="3" fill="#102545"></rect>
        <rect x="0" y="14" width="329.84" height="6" rx="3" fill="#22c55e"></rect>
        <text x="0" y="36" fill="#5e7392" font-size="10">62% of monthly avg pace</text>
      </g>
      <g transform="translate(24,80)">
        <text x="0" y="0" fill="#a9b8d0" font-size="12" font-weight="600">Anthropic API calls</text>
        <text x="532" y="0" fill="#e6edf5" font-size="13" font-weight="700" text-anchor="end" font-family="ui-monospace,Menlo,monospace">31,488</text>
        <rect x="0" y="14" width="532" height="6" rx="3" fill="#102545"></rect>
        <rect x="0" y="14" width="239.4" height="6" rx="3" fill="#60a5fa"></rect>
        <text x="0" y="36" fill="#5e7392" font-size="10">$87.42 spent · projects $146 EOM</text>
      </g>
      <g transform="translate(24,128)">
        <text x="0" y="0" fill="#a9b8d0" font-size="12" font-weight="600">Active techs</text>
        <text x="532" y="0" fill="#e6edf5" font-size="13" font-weight="700" text-anchor="end" font-family="ui-monospace,Menlo,monospace">12</text>
        <rect x="0" y="14" width="532" height="6" rx="3" fill="#102545"></rect>
        <rect x="0" y="14" width="532" height="6" rx="3" fill="#a78bfa"></rect>
        <text x="0" y="36" fill="#5e7392" font-size="10">all licensed under Pro plan</text>
      </g>
  </g>

  
  <g transform="translate(40,400)">
    <rect width="780" height="280" rx="16" fill="#0c1c36" stroke="#1f3358"></rect>
    <text x="24" y="36" fill="#5e7392" font-size="11" font-weight="700" letter-spacing="0.08em">DAILY AI SPEND · LAST 18 DAYS</text>
    <text x="756" y="36" fill="#22c55e" font-size="12" font-weight="700" text-anchor="end" font-family="ui-monospace,Menlo,monospace">$87.42 / projected $146</text>

    
    <g transform="translate(40,80)">
      <rect x="0" y="79.625" width="36" height="50.375" rx="2" fill="#d45a3a" opacity="0.8"></rect>
            <text x="18" y="155" fill="#5e7392" font-size="9" text-anchor="middle" font-family="ui-monospace,Menlo,monospace">1</text><rect x="40" y="52" width="36" height="78" rx="2" fill="#d45a3a" opacity="0.8"></rect>
            <rect x="80" y="45.5" width="36" height="84.5" rx="2" fill="#d45a3a" opacity="0.8"></rect>
            <rect x="120" y="55.25" width="36" height="74.75" rx="2" fill="#d45a3a" opacity="0.8"></rect>
            <text x="138" y="155" fill="#5e7392" font-size="9" text-anchor="middle" font-family="ui-monospace,Menlo,monospace">4</text><rect x="160" y="34.125" width="36" height="95.875" rx="2" fill="#d45a3a" opacity="0.8"></rect>
            <rect x="200" y="47.125" width="36" height="82.875" rx="2" fill="#d45a3a" opacity="0.8"></rect>
            <rect x="240" y="84.5" width="36" height="45.5" rx="2" fill="#d45a3a" opacity="0.8"></rect>
            <text x="258" y="155" fill="#5e7392" font-size="9" text-anchor="middle" font-family="ui-monospace,Menlo,monospace">7</text><rect x="280" y="74.75" width="36" height="55.25" rx="2" fill="#d45a3a" opacity="0.8"></rect>
            <rect x="320" y="37.375" width="36" height="92.625" rx="2" fill="#d45a3a" opacity="0.8"></rect>
            <rect x="360" y="30.875" width="36" height="99.125" rx="2" fill="#d45a3a" opacity="0.8"></rect>
            <text x="378" y="155" fill="#5e7392" font-size="9" text-anchor="middle" font-family="ui-monospace,Menlo,monospace">10</text><rect x="400" y="35.75" width="36" height="94.25" rx="2" fill="#d45a3a" opacity="0.8"></rect>
            <rect x="440" y="50.375" width="36" height="79.625" rx="2" fill="#d45a3a" opacity="0.8"></rect>
            <rect x="480" y="43.875" width="36" height="86.125" rx="2" fill="#d45a3a" opacity="0.8"></rect>
            <text x="498" y="155" fill="#5e7392" font-size="9" text-anchor="middle" font-family="ui-monospace,Menlo,monospace">13</text><rect x="520" y="53.625" width="36" height="76.375" rx="2" fill="#d45a3a" opacity="0.8"></rect>
            <rect x="560" y="45.5" width="36" height="84.5" rx="2" fill="#d45a3a" opacity="0.8"></rect>
            <rect x="600" y="39" width="36" height="91" rx="2" fill="#d45a3a" opacity="0.8"></rect>
            <text x="618" y="155" fill="#5e7392" font-size="9" text-anchor="middle" font-family="ui-monospace,Menlo,monospace">16</text><rect x="640" y="52" width="36" height="78" rx="2" fill="#d45a3a" opacity="0.8"></rect>
            <rect x="680" y="50.375" width="36" height="79.625" rx="2" fill="#d45a3a" opacity="1"></rect>
            
      <line x1="0" y1="130" x2="720" y2="130" stroke="#1f3358"></line>
      <text x="0" y="180" fill="#a9b8d0" font-size="11">avg <tspan fill="#e6edf5" font-weight="700" font-family="ui-monospace,Menlo,monospace">$0.86/day</tspan> · trending flat · provider: Anthropic (BYO key)</text>
    </g>
  </g>

  
  <g transform="translate(840,400)">
    <text x="0" y="-12" fill="#5e7392" font-size="11" font-weight="700" letter-spacing="0.08em">COMPARE PLANS</text>
    <rect width="400" height="280" rx="16" fill="#0c1c36" stroke="#1f3358"></rect>

    <g transform="translate(20,20)">
      <rect width="360" height="76" rx="10" fill="rgba(212,90,58,0.08)" stroke="#d45a3a"></rect>
      <text x="16" y="24" fill="#d45a3a" font-size="11" font-weight="800" letter-spacing="0.08em">YOUR PLAN · PRO</text>
      <text x="344" y="24" fill="#22c55e" font-size="10" font-weight="700" text-anchor="end">CURRENT</text>
      <text x="16" y="50" fill="#e6edf5" font-size="20" font-weight="700">$1,200<tspan fill="#8a9bb4" font-size="13" font-weight="500">/mo</tspan></text>
      <text x="16" y="68" fill="#a9b8d0" font-size="10">All modules · unlimited techs</text>
    </g>

    <g transform="translate(20,108)">
      <rect width="360" height="76" rx="10" fill="#0a1830" stroke="#1f3358"></rect>
      <text x="16" y="24" fill="#a78bfa" font-size="11" font-weight="800" letter-spacing="0.08em">ENTERPRISE</text>
      <text x="344" y="24" fill="#5e7392" font-size="10" text-anchor="end">contact us</text>
      <text x="16" y="50" fill="#e6edf5" font-size="20" font-weight="700">Custom</text>
      <text x="16" y="68" fill="#a9b8d0" font-size="10">Multi-tenant · custom SLA · onboarding</text>
    </g>

    <g transform="translate(20,196)">
      <rect width="360" height="64" rx="10" fill="#0a1830" stroke="#1f3358" stroke-dasharray="4 4"></rect>
      <text x="16" y="22" fill="#5e7392" font-size="11" font-weight="800" letter-spacing="0.08em">STARTER</text>
      <text x="16" y="44" fill="#a9b8d0" font-size="11">$600/mo · core triage only · &lt; 5 techs</text>
      <text x="344" y="44" fill="#60a5fa" font-size="10" text-anchor="end">downgrade ›</text>
    </g>
  </g>

  
  <text x="40" y="730" fill="#5e7392" font-size="11">Next invoice: Feb 1 · billed to AmEx ending 4012 · need a P.O.? <tspan fill="#60a5fa">contact billing</tspan></text>

</svg>