<svg xmlns="http://www.w3.org/2000/svg" viewBox="0 0 1280 800" preserveAspectRatio="xMidYMid slice" font-family="-apple-system, BlinkMacSystemFont, &#39;Segoe UI&#39;, system-ui, sans-serif">
<defs>
  <linearGradient id="bgGrad" x1="0" x2="0" y1="0" y2="1"><stop offset="0" stop-color="#0e1f3a"></stop><stop offset="1" stop-color="#091428"></stop></linearGradient>
  <linearGradient id="confHi" x1="0" x2="1"><stop offset="0" stop-color="#22c55e"></stop><stop offset="1" stop-color="#16a34a"></stop></linearGradient>
  <linearGradient id="confMed" x1="0" x2="1"><stop offset="0" stop-color="#eab308"></stop><stop offset="1" stop-color="#ca8a04"></stop></linearGradient>
  <linearGradient id="confLo" x1="0" x2="1"><stop offset="0" stop-color="#ef4444"></stop><stop offset="1" stop-color="#b91c1c"></stop></linearGradient>
</defs>
<rect width="1280" height="800" fill="url(#bgGrad)"></rect>

  <rect x="0" y="0" width="1280" height="56" fill="#06101f"></rect>
  <rect x="0" y="55" width="1280" height="1" fill="#1f3358"></rect>
  <circle cx="32" cy="28" r="9" fill="#d45a3a"></circle>
  <text x="50" y="33" fill="#e6edf5" font-size="14" font-weight="700" letter-spacing="0.04em">NOVA</text>
  <g fill="#8a9bb4" font-size="12" font-weight="600"><text x="140" y="33" fill="#8a9bb4">Home</text><text x="200" y="33" fill="#8a9bb4">Triage</text><text x="270" y="33" fill="#8a9bb4">Needs Attention</text><text x="385" y="33" fill="#8a9bb4">Dispatch Queue</text><text x="495" y="33" fill="#e6edf5">Pulse</text><rect x="490" y="40" width="35" height="2" fill="#d45a3a"></rect><text x="555" y="33" fill="#8a9bb4">Status</text></g>
  <circle cx="1230" cy="28" r="14" fill="#16294a" stroke="#1f3358"></circle>
  <text x="1230" y="33" fill="#8a9bb4" font-size="11" font-weight="700" text-anchor="middle">A</text>
  <text x="1200" y="33" fill="#8a9bb4" font-size="11" text-anchor="end">Avery</text>

  <text x="40" y="108" fill="#e6edf5" font-size="22" font-weight="700">Daily Briefing — Tuesday, October 21</text>
  <text x="40" y="130" fill="#8a9bb4" font-size="12">Auto-generated 8:48 AM PST · Huddle starts in 12 min</text>

  <rect x="1080" y="92" width="160" height="36" rx="18" fill="rgba(234,179,8,0.12)" stroke="#eab308"></rect>
  <circle cx="1098" cy="110" r="4" fill="#eab308"></circle>
  <text x="1112" y="115" fill="#eab308" font-size="11" font-weight="700">Huddle in 12 min</text>

  
  <g transform="translate(40,160)">
    
    <g>
      <text x="0" y="0" fill="#5e7392" font-size="11" font-weight="700" letter-spacing="0.08em">YESTERDAY · CLOSED</text>
      <rect x="0" y="14" width="380" height="240" rx="14" fill="#0c1c36" stroke="#1f3358"></rect>
      <text x="20" y="48" fill="#e6edf5" font-size="36" font-weight="700" font-family="ui-monospace,Menlo,monospace">47</text>
      <text x="84" y="48" fill="#8a9bb4" font-size="13">tickets resolved</text>
      <text x="84" y="64" fill="#22c55e" font-size="11" font-weight="600">↑ 8 vs Mon avg</text>

      <line x1="20" y1="86" x2="360" y2="86" stroke="#1f3358"></line>

      <text x="20" y="112" fill="#8a9bb4" font-size="11">Top type</text>
      <text x="360" y="112" fill="#e6edf5" font-size="11" font-weight="600" text-anchor="end">M365 · Outlook</text>
      <text x="20" y="138" fill="#8a9bb4" font-size="11">Top company</text>
      <text x="360" y="138" fill="#e6edf5" font-size="11" font-weight="600" text-anchor="end">Acme Holdings · 12</text>
      <text x="20" y="164" fill="#8a9bb4" font-size="11">Avg time-to-resolve</text>
      <text x="360" y="164" fill="#22c55e" font-size="11" font-weight="600" text-anchor="end">2h 14m</text>
      <text x="20" y="190" fill="#8a9bb4" font-size="11">First-touch resolved</text>
      <text x="360" y="190" fill="#e6edf5" font-size="11" font-weight="600" text-anchor="end">31 of 47 (66%)</text>

      <line x1="20" y1="208" x2="360" y2="208" stroke="#1f3358"></line>
      <text x="20" y="234" fill="#5e7392" font-size="10">No SLA breaches yesterday</text>
    </g>

    
    <g transform="translate(410,0)">
      <text x="0" y="0" fill="#5e7392" font-size="11" font-weight="700" letter-spacing="0.08em">TODAY · OPEN</text>
      <rect x="0" y="14" width="380" height="240" rx="14" fill="#0c1c36" stroke="#1f3358"></rect>
      <text x="20" y="48" fill="#e6edf5" font-size="36" font-weight="700" font-family="ui-monospace,Menlo,monospace">23</text>
      <text x="64" y="48" fill="#8a9bb4" font-size="13">in queue</text>

      <rect x="240" y="22" width="120" height="28" rx="6" fill="#3b1818"></rect>
      <text x="300" y="40" fill="#ef4444" font-size="11" font-weight="700" text-anchor="middle">3 P1/P2 active</text>

      <line x1="20" y1="86" x2="360" y2="86" stroke="#1f3358"></line>

      <text x="20" y="112" fill="#8a9bb4" font-size="11">Triage queue</text>
      <text x="360" y="112" fill="#d45a3a" font-size="11" font-weight="700" text-anchor="end">12 awaiting review</text>
      <text x="20" y="138" fill="#8a9bb4" font-size="11">Needs Attention</text>
      <text x="360" y="138" fill="#e6edf5" font-size="11" font-weight="600" text-anchor="end">8 ready to assign</text>
      <text x="20" y="164" fill="#8a9bb4" font-size="11">Awaiting client</text>
      <text x="360" y="164" fill="#e6edf5" font-size="11" font-weight="600" text-anchor="end">2 follow-ups due</text>
      <text x="20" y="190" fill="#8a9bb4" font-size="11">Scheduled today</text>
      <text x="360" y="190" fill="#e6edf5" font-size="11" font-weight="600" text-anchor="end">5 onsite · 3 remote</text>

      <line x1="20" y1="208" x2="360" y2="208" stroke="#1f3358"></line>
      <text x="20" y="234" fill="#eab308" font-size="10">⚠ 2 tickets approaching SLA</text>
    </g>

    
    <g transform="translate(820,0)">
      <text x="0" y="0" fill="#5e7392" font-size="11" font-weight="700" letter-spacing="0.08em">HEADS-UP</text>
      <rect x="0" y="14" width="380" height="240" rx="14" fill="#0c1c36" stroke="#1f3358"></rect>

      <g transform="translate(20,38)">
        <circle cx="6" cy="6" r="4" fill="#ef4444"></circle>
        <text x="20" y="10" fill="#e6edf5" font-size="12" font-weight="600">Acme — 3 tickets in 2 hrs</text>
        <text x="20" y="26" fill="#8a9bb4" font-size="11">Possible mailbox auth issue. Worth a proactive check.</text>
      </g>

      <g transform="translate(20,90)">
        <circle cx="6" cy="6" r="4" fill="#eab308"></circle>
        <text x="20" y="10" fill="#e6edf5" font-size="12" font-weight="600">Devon on PTO Friday</text>
        <text x="20" y="26" fill="#8a9bb4" font-size="11">2 onsite visits to redistribute — Sarah or Jamal.</text>
      </g>

      <g transform="translate(20,142)">
        <circle cx="6" cy="6" r="4" fill="#60a5fa"></circle>
        <text x="20" y="10" fill="#e6edf5" font-size="12" font-weight="600">Northwind renewal Friday</text>
        <text x="20" y="26" fill="#8a9bb4" font-size="11">Touchpoint ticket auto-created. Jordan assigned.</text>
      </g>

      <g transform="translate(20,194)">
        <circle cx="6" cy="6" r="4" fill="#a78bfa"></circle>
        <text x="20" y="10" fill="#e6edf5" font-size="12" font-weight="600">Greenfield onsite 2 PM</text>
        <text x="20" y="26" fill="#8a9bb4" font-size="11">Printer + network audit. Devon dispatched.</text>
      </g>
    </g>
  </g>

  
  <g transform="translate(40,440)">
    <text x="0" y="0" fill="#5e7392" font-size="11" font-weight="700" letter-spacing="0.08em">TEAM AVAILABILITY · TODAY</text>
    <rect x="0" y="14" width="1200" height="280" rx="14" fill="#0c1c36" stroke="#1f3358"></rect>

    
      <g transform="translate(20,44)">
        <circle cx="20" cy="20" r="20" fill="#16294a"></circle>
        <text x="20" y="26" fill="#a9b8d0" font-size="14" font-weight="700" text-anchor="middle">D</text>
        <circle cx="34" cy="32" r="6" fill="#22c55e" stroke="#0c1c36" stroke-width="2"></circle>
        <text x="54" y="18" fill="#e6edf5" font-size="13" font-weight="600">Devon S.</text>
        <text x="54" y="34" fill="#5e7392" font-size="11">Senior Tech</text>
        <text x="54" y="52" fill="#8a9bb4" font-size="11">Onsite — Greenfield</text>
      </g>
      <g transform="translate(320,44)">
        <circle cx="20" cy="20" r="20" fill="#16294a"></circle>
        <text x="20" y="26" fill="#a9b8d0" font-size="14" font-weight="700" text-anchor="middle">S</text>
        <circle cx="34" cy="32" r="6" fill="#22c55e" stroke="#0c1c36" stroke-width="2"></circle>
        <text x="54" y="18" fill="#e6edf5" font-size="13" font-weight="600">Sarah L.</text>
        <text x="54" y="34" fill="#5e7392" font-size="11">Tier 2</text>
        <text x="54" y="52" fill="#8a9bb4" font-size="11">Available · 4 active</text>
      </g>
      <g transform="translate(620,44)">
        <circle cx="20" cy="20" r="20" fill="#16294a"></circle>
        <text x="20" y="26" fill="#a9b8d0" font-size="14" font-weight="700" text-anchor="middle">J</text>
        <circle cx="34" cy="32" r="6" fill="#60a5fa" stroke="#0c1c36" stroke-width="2"></circle>
        <text x="54" y="18" fill="#e6edf5" font-size="13" font-weight="600">Jamal D.</text>
        <text x="54" y="34" fill="#5e7392" font-size="11">Tier 2</text>
        <text x="54" y="52" fill="#8a9bb4" font-size="11">In meeting until 10:30</text>
      </g>
      <g transform="translate(920,44)">
        <circle cx="20" cy="20" r="20" fill="#16294a"></circle>
        <text x="20" y="26" fill="#a9b8d0" font-size="14" font-weight="700" text-anchor="middle">P</text>
        <circle cx="34" cy="32" r="6" fill="#22c55e" stroke="#0c1c36" stroke-width="2"></circle>
        <text x="54" y="18" fill="#e6edf5" font-size="13" font-weight="600">Priya N.</text>
        <text x="54" y="34" fill="#5e7392" font-size="11">Tier 1</text>
        <text x="54" y="52" fill="#8a9bb4" font-size="11">Available · 2 active</text>
      </g>
      <g transform="translate(20,164)">
        <circle cx="20" cy="20" r="20" fill="#16294a"></circle>
        <text x="20" y="26" fill="#a9b8d0" font-size="14" font-weight="700" text-anchor="middle">J</text>
        <circle cx="34" cy="32" r="6" fill="#22c55e" stroke="#0c1c36" stroke-width="2"></circle>
        <text x="54" y="18" fill="#e6edf5" font-size="13" font-weight="600">Jordan Pell</text>
        <text x="54" y="34" fill="#5e7392" font-size="11">Service Mgr</text>
        <text x="54" y="52" fill="#8a9bb4" font-size="11">Available · escalations</text>
      </g>
      <g transform="translate(320,164)">
        <circle cx="20" cy="20" r="20" fill="#16294a"></circle>
        <text x="20" y="26" fill="#a9b8d0" font-size="14" font-weight="700" text-anchor="middle">A</text>
        <circle cx="34" cy="32" r="6" fill="#d45a3a" stroke="#0c1c36" stroke-width="2"></circle>
        <text x="54" y="18" fill="#e6edf5" font-size="13" font-weight="600">Avery</text>
        <text x="54" y="34" fill="#5e7392" font-size="11">Dispatcher</text>
        <text x="54" y="52" fill="#8a9bb4" font-size="11">On dispatch · queue owner</text>
      </g>
      <g transform="translate(620,164)">
        <circle cx="20" cy="20" r="20" fill="#16294a"></circle>
        <text x="20" y="26" fill="#a9b8d0" font-size="14" font-weight="700" text-anchor="middle">T</text>
        <circle cx="34" cy="32" r="6" fill="#a78bfa" stroke="#0c1c36" stroke-width="2"></circle>
        <text x="54" y="18" fill="#e6edf5" font-size="13" font-weight="600">Tom W.</text>
        <text x="54" y="34" fill="#5e7392" font-size="11">Tier 1</text>
        <text x="54" y="52" fill="#8a9bb4" font-size="11">PTO — back Mon</text>
      </g>
      <g transform="translate(920,164)">
        <circle cx="20" cy="20" r="20" fill="#16294a"></circle>
        <text x="20" y="26" fill="#a9b8d0" font-size="14" font-weight="700" text-anchor="middle">A</text>
        <circle cx="34" cy="32" r="6" fill="#22c55e" stroke="#0c1c36" stroke-width="2"></circle>
        <text x="54" y="18" fill="#e6edf5" font-size="13" font-weight="600">Alex S.</text>
        <text x="54" y="34" fill="#5e7392" font-size="11">Owner</text>
        <text x="54" y="52" fill="#8a9bb4" font-size="11">Available · client calls</text>
      </g>
  </g>

</svg>