<svg xmlns="http://www.w3.org/2000/svg" viewBox="0 0 1280 800" preserveAspectRatio="xMidYMid slice" font-family="-apple-system, BlinkMacSystemFont, &#39;Segoe UI&#39;, system-ui, sans-serif">
  <defs>
    <linearGradient id="bgG2" x1="0" x2="0" y1="0" y2="1"><stop offset="0" stop-color="#0e1f3a"></stop><stop offset="1" stop-color="#091428"></stop></linearGradient>
  </defs>
  <rect width="1280" height="800" fill="url(#bgG2)"></rect>

  
  <rect x="0" y="0" width="1280" height="64" fill="#06101f"></rect>
  <rect x="0" y="63" width="1280" height="1" fill="#1f3358"></rect>
  <circle cx="36" cy="32" r="11" fill="#d45a3a"></circle>
  <text x="58" y="38" fill="#e6edf5" font-size="16" font-weight="700" letter-spacing="0.04em">NOVA</text>
  <text x="120" y="38" fill="#5e7392" font-size="13">/</text>
  <text x="138" y="38" fill="#e6edf5" font-size="14" font-weight="600">Status Board</text>

  
  <text x="1240" y="36" fill="#e6edf5" font-size="20" font-weight="700" font-family="ui-monospace,Menlo,monospace" text-anchor="end">10:47:32 PST</text>
  <text x="1240" y="52" fill="#8a9bb4" font-size="11" text-anchor="end">Tue · Oct 21 · synced 3s ago</text>

  
  <g transform="translate(40,90)">
    <rect width="288" height="120" rx="16" fill="#0c1c36" stroke="#1f3358"></rect>
    <text x="20" y="40" fill="#5e7392" font-size="11" font-weight="700" letter-spacing="0.08em">OPEN TICKETS</text>
    <text x="20" y="92" fill="#e6edf5" font-size="56" font-weight="700" font-family="ui-monospace,Menlo,monospace">23</text>
    <text x="160" y="92" fill="#22c55e" font-size="14">↓ 4 vs hour</text>
    <text x="160" y="108" fill="#8a9bb4" font-size="11">last hour</text>

    <rect x="304" y="0" width="288" height="120" rx="16" fill="#0c1c36" stroke="#1f3358"></rect>
    <text x="324" y="40" fill="#5e7392" font-size="11" font-weight="700" letter-spacing="0.08em">P1 / P2 ACTIVE</text>
    <text x="324" y="92" fill="#ef4444" font-size="56" font-weight="700" font-family="ui-monospace,Menlo,monospace">3</text>
    <text x="430" y="84" fill="#8a9bb4" font-size="12">all assigned</text>
    <text x="430" y="100" fill="#8a9bb4" font-size="12">avg age 18m</text>

    <rect x="608" y="0" width="288" height="120" rx="16" fill="#0c1c36" stroke="#1f3358"></rect>
    <text x="628" y="40" fill="#5e7392" font-size="11" font-weight="700" letter-spacing="0.08em">SLA AT RISK</text>
    <text x="628" y="92" fill="#eab308" font-size="56" font-weight="700" font-family="ui-monospace,Menlo,monospace">2</text>
    <text x="734" y="84" fill="#8a9bb4" font-size="12">≤ 30 min to breach</text>
    <text x="734" y="100" fill="#eab308" font-size="12" font-weight="600">⚠ Acme · Northwind</text>

    <rect x="912" y="0" width="288" height="120" rx="16" fill="#0c1c36" stroke="#1f3358"></rect>
    <text x="932" y="40" fill="#5e7392" font-size="11" font-weight="700" letter-spacing="0.08em">CLOSED TODAY</text>
    <text x="932" y="92" fill="#22c55e" font-size="56" font-weight="700" font-family="ui-monospace,Menlo,monospace">31</text>
    <text x="1080" y="92" fill="#22c55e" font-size="14">↑ 18%</text>
    <text x="1080" y="108" fill="#8a9bb4" font-size="11">vs Tue avg</text>
  </g>

  
  <g transform="translate(40,236)">
    <text x="0" y="0" fill="#5e7392" font-size="11" font-weight="700" letter-spacing="0.08em">TEAM · LIVE</text>

    
      <g transform="translate(0,14)">
        <rect width="600" height="60" rx="10" fill="#0c1c36" stroke="#1f3358"></rect>
        <circle cx="30" cy="30" r="18" fill="#16294a"></circle>
        <text x="30" y="35" fill="#a9b8d0" font-size="13" font-weight="700" text-anchor="middle">D</text>
        <circle cx="44" cy="42" r="5" fill="#22c55e" stroke="#0c1c36" stroke-width="2"></circle>

        <text x="64" y="26" fill="#e6edf5" font-size="13" font-weight="600">Devon S.</text>
        <text x="64" y="42" fill="#5e7392" font-size="10">Senior Tech</text>

        <text x="220" y="26" fill="#e6edf5" font-size="12">Onsite — Greenfield · 34m</text>
        <text x="220" y="42" fill="#60a5fa" font-size="10" font-family="ui-monospace,Menlo,monospace">T-48189</text>
      </g>
      <g transform="translate(0,84)">
        <rect width="600" height="60" rx="10" fill="#0c1c36" stroke="#1f3358"></rect>
        <circle cx="30" cy="30" r="18" fill="#16294a"></circle>
        <text x="30" y="35" fill="#a9b8d0" font-size="13" font-weight="700" text-anchor="middle">S</text>
        <circle cx="44" cy="42" r="5" fill="#22c55e" stroke="#0c1c36" stroke-width="2"></circle>

        <text x="64" y="26" fill="#e6edf5" font-size="13" font-weight="600">Sarah L.</text>
        <text x="64" y="42" fill="#5e7392" font-size="10">Tier 2</text>

        <text x="220" y="26" fill="#e6edf5" font-size="12">Working — T-48213 · 12m</text>
        <text x="220" y="42" fill="#60a5fa" font-size="10" font-family="ui-monospace,Menlo,monospace">Acme · Backup</text>
      </g>
      <g transform="translate(0,154)">
        <rect width="600" height="60" rx="10" fill="#0c1c36" stroke="#1f3358"></rect>
        <circle cx="30" cy="30" r="18" fill="#16294a"></circle>
        <text x="30" y="35" fill="#a9b8d0" font-size="13" font-weight="700" text-anchor="middle">J</text>
        <circle cx="44" cy="42" r="5" fill="#60a5fa" stroke="#0c1c36" stroke-width="2"></circle>

        <text x="64" y="26" fill="#e6edf5" font-size="13" font-weight="600">Jamal D.</text>
        <text x="64" y="42" fill="#5e7392" font-size="10">Tier 2</text>

        <text x="220" y="26" fill="#e6edf5" font-size="12">In meeting — back 10:30</text>
        <text x="220" y="42" fill="#60a5fa" font-size="10" font-family="ui-monospace,Menlo,monospace">—</text>
      </g>
      <g transform="translate(0,224)">
        <rect width="600" height="60" rx="10" fill="#0c1c36" stroke="#1f3358"></rect>
        <circle cx="30" cy="30" r="18" fill="#16294a"></circle>
        <text x="30" y="35" fill="#a9b8d0" font-size="13" font-weight="700" text-anchor="middle">P</text>
        <circle cx="44" cy="42" r="5" fill="#22c55e" stroke="#0c1c36" stroke-width="2"></circle>

        <text x="64" y="26" fill="#e6edf5" font-size="13" font-weight="600">Priya N.</text>
        <text x="64" y="42" fill="#5e7392" font-size="10">Tier 1</text>

        <text x="220" y="26" fill="#e6edf5" font-size="12">Available · 2 active</text>
        <text x="220" y="42" fill="#60a5fa" font-size="10" font-family="ui-monospace,Menlo,monospace">T-48198 · T-48172</text>
      </g>
      <g transform="translate(0,294)">
        <rect width="600" height="60" rx="10" fill="#0c1c36" stroke="#1f3358"></rect>
        <circle cx="30" cy="30" r="18" fill="#16294a"></circle>
        <text x="30" y="35" fill="#a9b8d0" font-size="13" font-weight="700" text-anchor="middle">J</text>
        <circle cx="44" cy="42" r="5" fill="#22c55e" stroke="#0c1c36" stroke-width="2"></circle>

        <text x="64" y="26" fill="#e6edf5" font-size="13" font-weight="600">Jordan Pell</text>
        <text x="64" y="42" fill="#5e7392" font-size="10">Service Mgr</text>

        <text x="220" y="26" fill="#e6edf5" font-size="12">Available · escalations</text>
        <text x="220" y="42" fill="#60a5fa" font-size="10" font-family="ui-monospace,Menlo,monospace">—</text>
      </g>
      <g transform="translate(0,364)">
        <rect width="600" height="60" rx="10" fill="#0c1c36" stroke="#1f3358"></rect>
        <circle cx="30" cy="30" r="18" fill="#16294a"></circle>
        <text x="30" y="35" fill="#a9b8d0" font-size="13" font-weight="700" text-anchor="middle">T</text>
        <circle cx="44" cy="42" r="5" fill="#a78bfa" stroke="#0c1c36" stroke-width="2"></circle>

        <text x="64" y="26" fill="#e6edf5" font-size="13" font-weight="600">Tom W.</text>
        <text x="64" y="42" fill="#5e7392" font-size="10">Tier 1</text>

        <text x="220" y="26" fill="#e6edf5" font-size="12">PTO — back Mon</text>
        <text x="220" y="42" fill="#60a5fa" font-size="10" font-family="ui-monospace,Menlo,monospace">—</text>
      </g>
  </g>

  
  <g transform="translate(680,236)">
    <text x="0" y="0" fill="#5e7392" font-size="11" font-weight="700" letter-spacing="0.08em">SLA PULSE · NEXT 2 HOURS</text>

    <rect x="0" y="14" width="560" height="500" rx="14" fill="#0c1c36" stroke="#1f3358"></rect>

    
    <g transform="translate(20,40)">
      <line x1="0" y1="14" x2="520" y2="14" stroke="#1f3358"></line>
      <g fill="#5e7392" font-size="10" font-family="ui-monospace,Menlo,monospace">
        <line x1="0" y1="10" x2="0" y2="18" stroke="#5e7392"></line>
        <text x="0" y="36">now</text>
        <line x1="130" y1="10" x2="130" y2="18" stroke="#5e7392"></line>
        <text x="130" y="36" text-anchor="middle">+30m</text>
        <line x1="260" y1="10" x2="260" y2="18" stroke="#5e7392"></line>
        <text x="260" y="36" text-anchor="middle">+1h</text>
        <line x1="390" y1="10" x2="390" y2="18" stroke="#5e7392"></line>
        <text x="390" y="36" text-anchor="middle">+1h 30m</text>
        <line x1="520" y1="10" x2="520" y2="18" stroke="#5e7392"></line>
        <text x="520" y="36" text-anchor="end">+2h</text>
      </g>
    </g>

    
    
      <g transform="translate(20,100)">
        <text x="0" y="-4" fill="#8a9bb4" font-size="10" font-family="ui-monospace,Menlo,monospace">T-48217 · Acme</text>
        <rect x="0" y="0" width="110" height="20" rx="4" fill="#ef4444" opacity="1"></rect>
        <rect x="0" y="0" width="110" height="20" rx="4" fill="#ef4444"></rect>
        <text x="8" y="14" fill="#fff" font-size="9" font-weight="700">Acme · Outlook · 26m left</text>
      </g>
      <g transform="translate(20,140)">
        <text x="0" y="-4" fill="#8a9bb4" font-size="10" font-family="ui-monospace,Menlo,monospace">T-48210 · Northwind</text>
        <rect x="0" y="0" width="75" height="20" rx="4" fill="#ef4444" opacity="1"></rect>
        <rect x="0" y="0" width="75" height="20" rx="4" fill="#ef4444"></rect>
        <text x="8" y="14" fill="#fff" font-size="9" font-weight="700">Northwind · 2FA · 18m left</text>
      </g>
      <g transform="translate(20,180)">
        <text x="0" y="-4" fill="#8a9bb4" font-size="10" font-family="ui-monospace,Menlo,monospace">T-48215 · Greenfield</text>
        <rect x="0" y="0" width="185" height="20" rx="4" fill="#eab308" opacity="0.7"></rect>
        
        <text x="8" y="14" fill="#fff" font-size="9" font-weight="700">Greenfield · Printer · 43m left</text>
      </g>
      <g transform="translate(20,220)">
        <text x="0" y="-4" fill="#8a9bb4" font-size="10" font-family="ui-monospace,Menlo,monospace">T-48213 · Acme</text>
        <rect x="0" y="0" width="310" height="20" rx="4" fill="#eab308" opacity="0.7"></rect>
        
        <text x="8" y="14" fill="#fff" font-size="9" font-weight="700">Acme · Backup · 1h 12m left</text>
      </g>
      <g transform="translate(20,260)">
        <text x="0" y="-4" fill="#8a9bb4" font-size="10" font-family="ui-monospace,Menlo,monospace">T-48198 · Northwind</text>
        <rect x="60" y="0" width="380" height="20" rx="4" fill="#22c55e" opacity="0.7"></rect>
        
        <text x="68" y="14" fill="#fff" font-size="9" font-weight="700">Northwind · VPN config</text>
      </g>
      <g transform="translate(20,300)">
        <text x="0" y="-4" fill="#8a9bb4" font-size="10" font-family="ui-monospace,Menlo,monospace">T-48189 · Greenfield</text>
        <rect x="140" y="0" width="240" height="20" rx="4" fill="#a78bfa" opacity="0.7"></rect>
        
        <text x="148" y="14" fill="#fff" font-size="9" font-weight="700">Greenfield · Onsite scheduled 2 PM</text>
      </g>
      <g transform="translate(20,340)">
        <text x="0" y="-4" fill="#8a9bb4" font-size="10" font-family="ui-monospace,Menlo,monospace">T-48172 · Pinewood</text>
        <rect x="180" y="0" width="200" height="20" rx="4" fill="#22c55e" opacity="0.7"></rect>
        
        <text x="188" y="14" fill="#fff" font-size="9" font-weight="700">Pinewood · Hyper-V cleanup</text>
      </g>
      <g transform="translate(20,380)">
        <text x="0" y="-4" fill="#8a9bb4" font-size="10" font-family="ui-monospace,Menlo,monospace">T-48155 · Pinewood</text>
        <rect x="340" y="0" width="180" height="20" rx="4" fill="#a78bfa" opacity="0.7"></rect>
        
        <text x="348" y="14" fill="#fff" font-size="9" font-weight="700">After-hours patch · 8 PM</text>
      </g>

    
    <line x1="40" y1="80" x2="40" y2="424" stroke="#d45a3a" stroke-width="2" stroke-dasharray="2 2"></line>
    <text x="40" y="448" fill="#d45a3a" font-size="10" font-weight="700" text-anchor="middle" font-family="ui-monospace,Menlo,monospace">NOW</text>
  </g>
</svg>