<svg xmlns="http://www.w3.org/2000/svg" viewBox="0 0 1280 800" preserveAspectRatio="xMidYMid slice" font-family="-apple-system, BlinkMacSystemFont, &#39;Segoe UI&#39;, system-ui, sans-serif">
<defs>
  <linearGradient id="bgGrad" x1="0" x2="0" y1="0" y2="1"><stop offset="0" stop-color="#0e1f3a"></stop><stop offset="1" stop-color="#091428"></stop></linearGradient>
  <linearGradient id="confHi" x1="0" x2="1"><stop offset="0" stop-color="#22c55e"></stop><stop offset="1" stop-color="#16a34a"></stop></linearGradient>
  <linearGradient id="confMed" x1="0" x2="1"><stop offset="0" stop-color="#eab308"></stop><stop offset="1" stop-color="#ca8a04"></stop></linearGradient>
  <linearGradient id="confLo" x1="0" x2="1"><stop offset="0" stop-color="#ef4444"></stop><stop offset="1" stop-color="#b91c1c"></stop></linearGradient>
</defs>
<rect width="1280" height="800" fill="url(#bgGrad)"></rect>

  <rect x="0" y="0" width="1280" height="56" fill="#06101f"></rect>
  <rect x="0" y="55" width="1280" height="1" fill="#1f3358"></rect>
  <circle cx="32" cy="28" r="9" fill="#d45a3a"></circle>
  <text x="50" y="33" fill="#e6edf5" font-size="14" font-weight="700" letter-spacing="0.04em">NOVA</text>
  <g fill="#8a9bb4" font-size="12" font-weight="600"><text x="140" y="33" fill="#8a9bb4">Home</text><text x="200" y="33" fill="#e6edf5">Triage</text><rect x="195" y="40" width="42" height="2" fill="#d45a3a"></rect><text x="270" y="33" fill="#8a9bb4">Needs Attention</text><text x="385" y="33" fill="#8a9bb4">Dispatch Queue</text><text x="495" y="33" fill="#8a9bb4">Pulse</text><text x="555" y="33" fill="#8a9bb4">Status</text></g>
  <circle cx="1230" cy="28" r="14" fill="#16294a" stroke="#1f3358"></circle>
  <text x="1230" y="33" fill="#8a9bb4" font-size="11" font-weight="700" text-anchor="middle">A</text>
  <text x="1200" y="33" fill="#8a9bb4" font-size="11" text-anchor="end">Avery</text>

  <text x="40" y="108" fill="#e6edf5" font-size="22" font-weight="700">Confidence thresholds</text>
  <text x="40" y="130" fill="#8a9bb4" font-size="12">Auto-route tickets above the line. Held tickets land in the review queue for Avery.</text>

  
  <g transform="translate(40,160)">
    <rect width="560" height="600" rx="14" fill="#0c1c36" stroke="#1f3358"></rect>

    <text x="24" y="38" fill="#5e7392" font-size="11" font-weight="700" letter-spacing="0.08em">DECISION THRESHOLDS</text>

    
      <g transform="translate(24,64)">
        <text x="0" y="0" fill="#e6edf5" font-size="13" font-weight="600">Auto-route confidence</text>
        <text x="512" y="0" fill="#22c55e" font-size="20" font-weight="700" font-family="ui-monospace,Menlo,monospace" text-anchor="end">80%</text>

        
        <rect x="0" y="20" width="512" height="6" rx="3" fill="#1f3358"></rect>
        <rect x="0" y="20" width="409.6" height="6" rx="3" fill="#22c55e"></rect>
        <circle cx="409.6" cy="23" r="10" fill="#fff" stroke="#22c55e" stroke-width="2"></circle>

        
        <g fill="#5e7392" font-size="9" font-family="ui-monospace,Menlo,monospace">
          <text x="0" y="46">0</text>
          <text x="128" y="46" text-anchor="middle">25</text>
          <text x="256" y="46" text-anchor="middle">50</text>
          <text x="384" y="46" text-anchor="middle">75</text>
          <text x="512" y="46" text-anchor="end">100</text>
        </g>

        <text x="0" y="78" fill="#8a9bb4" font-size="11">Above this, ticket flows straight to Needs Attention. Below, held for review.</text>
      </g>
      <g transform="translate(24,188)">
        <text x="0" y="0" fill="#e6edf5" font-size="13" font-weight="600">P1/P2 escalation floor</text>
        <text x="512" y="0" fill="#ef4444" font-size="20" font-weight="700" font-family="ui-monospace,Menlo,monospace" text-anchor="end">90%</text>

        
        <rect x="0" y="20" width="512" height="6" rx="3" fill="#1f3358"></rect>
        <rect x="0" y="20" width="460.8" height="6" rx="3" fill="#ef4444"></rect>
        <circle cx="460.8" cy="23" r="10" fill="#fff" stroke="#ef4444" stroke-width="2"></circle>

        
        <g fill="#5e7392" font-size="9" font-family="ui-monospace,Menlo,monospace">
          <text x="0" y="46">0</text>
          <text x="128" y="46" text-anchor="middle">25</text>
          <text x="256" y="46" text-anchor="middle">50</text>
          <text x="384" y="46" text-anchor="middle">75</text>
          <text x="512" y="46" text-anchor="end">100</text>
        </g>

        <text x="0" y="78" fill="#8a9bb4" font-size="11">P1 or P2 below this confidence get a Avery review even if rules pass.</text>
      </g>
      <g transform="translate(24,312)">
        <text x="0" y="0" fill="#e6edf5" font-size="13" font-weight="600">VIP override threshold</text>
        <text x="512" y="0" fill="#a78bfa" font-size="20" font-weight="700" font-family="ui-monospace,Menlo,monospace" text-anchor="end">60%</text>

        
        <rect x="0" y="20" width="512" height="6" rx="3" fill="#1f3358"></rect>
        <rect x="0" y="20" width="307.2" height="6" rx="3" fill="#a78bfa"></rect>
        <circle cx="307.2" cy="23" r="10" fill="#fff" stroke="#a78bfa" stroke-width="2"></circle>

        
        <g fill="#5e7392" font-size="9" font-family="ui-monospace,Menlo,monospace">
          <text x="0" y="46">0</text>
          <text x="128" y="46" text-anchor="middle">25</text>
          <text x="256" y="46" text-anchor="middle">50</text>
          <text x="384" y="46" text-anchor="middle">75</text>
          <text x="512" y="46" text-anchor="end">100</text>
        </g>

        <text x="0" y="78" fill="#8a9bb4" font-size="11">Lower bar for VIP senders — surface anything ambiguous.</text>
      </g>
      <g transform="translate(24,436)">
        <text x="0" y="0" fill="#e6edf5" font-size="13" font-weight="600">Auto-close suggestion</text>
        <text x="512" y="0" fill="#60a5fa" font-size="20" font-weight="700" font-family="ui-monospace,Menlo,monospace" text-anchor="end">75%</text>

        
        <rect x="0" y="20" width="512" height="6" rx="3" fill="#1f3358"></rect>
        <rect x="0" y="20" width="384" height="6" rx="3" fill="#60a5fa"></rect>
        <circle cx="384" cy="23" r="10" fill="#fff" stroke="#60a5fa" stroke-width="2"></circle>

        
        <g fill="#5e7392" font-size="9" font-family="ui-monospace,Menlo,monospace">
          <text x="0" y="46">0</text>
          <text x="128" y="46" text-anchor="middle">25</text>
          <text x="256" y="46" text-anchor="middle">50</text>
          <text x="384" y="46" text-anchor="middle">75</text>
          <text x="512" y="46" text-anchor="end">100</text>
        </g>

        <text x="0" y="78" fill="#8a9bb4" font-size="11">Below this, Nova will not suggest closing the ticket.</text>
      </g>
  </g>

  
  <g transform="translate(620,160)">
    <rect width="620" height="600" rx="14" fill="#0c1c36" stroke="#1f3358"></rect>

    <text x="24" y="38" fill="#5e7392" font-size="11" font-weight="700" letter-spacing="0.08em">LIVE IMPACT · LAST 30 DAYS · 1,247 TICKETS</text>

    
    <g transform="translate(24,60)">
      <rect x="0" y="0" width="280" height="100" rx="10" fill="#0a1830" stroke="#1f3358"></rect>
      <text x="20" y="32" fill="#5e7392" font-size="11" font-weight="600" letter-spacing="0.06em">AUTO-ROUTED</text>
      <text x="20" y="74" fill="#22c55e" font-size="40" font-weight="700" font-family="ui-monospace,Menlo,monospace">1,089</text>
      <text x="160" y="74" fill="#8a9bb4" font-size="12">87.3%</text>

      <rect x="292" y="0" width="280" height="100" rx="10" fill="#0a1830" stroke="#1f3358"></rect>
      <text x="312" y="32" fill="#5e7392" font-size="11" font-weight="600" letter-spacing="0.06em">HELD FOR REVIEW</text>
      <text x="312" y="74" fill="#eab308" font-size="40" font-weight="700" font-family="ui-monospace,Menlo,monospace">158</text>
      <text x="404" y="74" fill="#8a9bb4" font-size="12">12.7%</text>
    </g>

    
    <g transform="translate(24,200)">
      <text x="0" y="0" fill="#5e7392" font-size="11" font-weight="700" letter-spacing="0.08em">CONFIDENCE DISTRIBUTION</text>
      <line x1="0" y1="200" x2="572" y2="200" stroke="#1f3358"></line>

      <rect x="4" y="197.94871794871796" width="22" height="2.051282051282051" rx="2" fill="#1d2e4f"></rect><rect x="32" y="196.92307692307693" width="22" height="3.076923076923077" rx="2" fill="#1d2e4f"></rect><rect x="60" y="195.8974358974359" width="22" height="4.102564102564102" rx="2" fill="#1d2e4f"></rect><rect x="88" y="194.87179487179486" width="22" height="5.128205128205128" rx="2" fill="#1d2e4f"></rect><rect x="116" y="192.82051282051282" width="22" height="7.17948717948718" rx="2" fill="#1d2e4f"></rect><rect x="144" y="190.76923076923077" width="22" height="9.230769230769232" rx="2" fill="#1d2e4f"></rect><rect x="172" y="187.69230769230768" width="22" height="12.307692307692308" rx="2" fill="#1d2e4f"></rect><rect x="200" y="185.64102564102564" width="22" height="14.35897435897436" rx="2" fill="#1d2e4f"></rect><rect x="228" y="183.5897435897436" width="22" height="16.41025641025641" rx="2" fill="#1d2e4f"></rect><rect x="256" y="180.51282051282053" width="22" height="19.487179487179485" rx="2" fill="#1d2e4f"></rect><rect x="284" y="177.43589743589743" width="22" height="22.564102564102562" rx="2" fill="#1d2e4f"></rect><rect x="312" y="171.28205128205127" width="22" height="28.71794871794872" rx="2" fill="#1d2e4f"></rect><rect x="340" y="161.02564102564102" width="22" height="38.97435897435897" rx="2" fill="#1d2e4f"></rect><rect x="368" y="146.66666666666669" width="22" height="53.33333333333333" rx="2" fill="#1d2e4f"></rect><rect x="396" y="130.25641025641025" width="22" height="69.74358974358975" rx="2" fill="#1d2e4f"></rect><rect x="424" y="113.84615384615385" width="22" height="86.15384615384615" rx="2" fill="#1d2e4f"></rect><rect x="452" y="85.12820512820512" width="22" height="114.87179487179488" rx="2" fill="#22c55e"></rect><rect x="480" y="68.71794871794873" width="22" height="131.28205128205127" rx="2" fill="#22c55e"></rect><rect x="508" y="48.205128205128204" width="22" height="151.7948717948718" rx="2" fill="#22c55e"></rect><rect x="536" y="40" width="22" height="160" rx="2" fill="#22c55e"></rect>

      
      <line x1="452" y1="14" x2="452" y2="200" stroke="#22c55e" stroke-width="2" stroke-dasharray="4 4"></line>
      <rect x="430" y="0" width="48" height="18" rx="4" fill="#22c55e"></rect>
      <text x="454" y="13" fill="#0a1628" font-size="10" font-weight="800" text-anchor="middle">80%</text>

      <g fill="#5e7392" font-size="9" font-family="ui-monospace,Menlo,monospace">
        <text x="0" y="218">0</text>
        <text x="140" y="218">25</text>
        <text x="280" y="218">50</text>
        <text x="420" y="218">75</text>
        <text x="560" y="218">100</text>
      </g>
    </g>

    
    <g transform="translate(24,460)">
      <rect width="572" height="100" rx="10" fill="#0a1830" stroke="#1f3358"></rect>
      <circle cx="20" cy="22" r="6" fill="#22c55e"></circle>
      <text x="36" y="26" fill="#e6edf5" font-size="13" font-weight="600">Avery&#39;s override rate at 80% threshold: 4.2%</text>
      <text x="36" y="48" fill="#8a9bb4" font-size="11">Of 1,089 auto-routed tickets, 46 were corrected. Each correction trains the model.</text>
      <text x="36" y="70" fill="#8a9bb4" font-size="11">Lowering to 75% would auto-route 94 more but raise overrides to ~6.1%.</text>
    </g>
  </g>

</svg>