
<svg xmlns="http://www.w3.org/2000/svg" viewBox="0 0 1280 800" preserveAspectRatio="xMidYMid slice" font-family="-apple-system, BlinkMacSystemFont, &#39;Segoe UI&#39;, system-ui, sans-serif">
<defs>
  <linearGradient id="bgGrad" x1="0" x2="0" y1="0" y2="1"><stop offset="0" stop-color="#0e1f3a"></stop><stop offset="1" stop-color="#091428"></stop></linearGradient>
  <linearGradient id="hi" x1="0" x2="1"><stop offset="0" stop-color="#22c55e"></stop><stop offset="1" stop-color="#16a34a"></stop></linearGradient>
  <linearGradient id="warn" x1="0" x2="1"><stop offset="0" stop-color="#eab308"></stop><stop offset="1" stop-color="#ca8a04"></stop></linearGradient>
  <linearGradient id="lo" x1="0" x2="1"><stop offset="0" stop-color="#ef4444"></stop><stop offset="1" stop-color="#b91c1c"></stop></linearGradient>
</defs>
<rect width="1280" height="800" fill="url(#bgGrad)"></rect>

<rect x="0" y="0" width="1280" height="56" fill="#06101f"></rect>
<rect x="0" y="55" width="1280" height="1" fill="#1f3358"></rect>
<circle cx="32" cy="28" r="9" fill="#d45a3a"></circle>
<text x="50" y="33" fill="#e6edf5" font-size="14" font-weight="700" letter-spacing="0.04em">NOVA</text>
<g font-size="12" font-weight="600"><text x="140" y="33" fill="#8a9bb4">Home</text><text x="200" y="33" fill="#8a9bb4">Triage</text><text x="268" y="33" fill="#8a9bb4">Needs Attention</text><text x="388" y="33" fill="#8a9bb4">Dispatch Queue</text><text x="500" y="33" fill="#8a9bb4">Pulse</text><text x="558" y="33" fill="#e6edf5">Status</text><rect x="554" y="40" width="50" height="2" fill="#d45a3a"></rect><text x="618" y="33" fill="#8a9bb4">Flash</text></g>
<circle cx="1230" cy="28" r="14" fill="#16294a" stroke="#1f3358"></circle>
<text x="1230" y="33" fill="#8a9bb4" font-size="11" font-weight="700" text-anchor="middle">A</text>
<text x="1200" y="33" fill="#8a9bb4" font-size="11" text-anchor="end">Avery</text>

<text x="40" y="108" fill="#e6edf5" font-size="22" font-weight="700">Ticket QA</text>
<text x="40" y="130" fill="#8a9bb4" font-size="12">Closed tickets · Apr 14–27 · 247 reviewed · auto-graded · 12 flagged for coaching</text>


<g transform="translate(40,160)">
  <rect width="800" height="180" rx="10" fill="#0c1c36" stroke="#1f3358"></rect>
  <text x="24" y="34" fill="#e6edf5" font-size="13" font-weight="600">Grade distribution · 247 tickets</text>
  
    <text x="60" y="80" fill="#a9b8d0" font-size="14" font-weight="700" text-anchor="middle">A</text>
    <rect x="24" y="92" width="120" height="82" rx="6" fill="#22c55e33"></rect>
    <rect x="24" y="92" width="67.2" height="82" rx="6" fill="#22c55e"></rect>
    <text x="84" y="158" fill="#e6edf5" font-size="14" font-weight="700" text-anchor="middle">148</text>
  
    <text x="208" y="80" fill="#a9b8d0" font-size="14" font-weight="700" text-anchor="middle">B</text>
    <rect x="172" y="92" width="120" height="39" rx="6" fill="#84cc1633"></rect>
    <rect x="172" y="92" width="32.8" height="39" rx="6" fill="#84cc16"></rect>
    <text x="232" y="158" fill="#e6edf5" font-size="14" font-weight="700" text-anchor="middle">62</text>
  
    <text x="356" y="80" fill="#a9b8d0" font-size="14" font-weight="700" text-anchor="middle">C</text>
    <rect x="320" y="92" width="120" height="20.5" rx="6" fill="#eab30833"></rect>
    <rect x="320" y="92" width="18" height="20.5" rx="6" fill="#eab308"></rect>
    <text x="380" y="158" fill="#e6edf5" font-size="14" font-weight="700" text-anchor="middle">25</text>
  
    <text x="504" y="80" fill="#a9b8d0" font-size="14" font-weight="700" text-anchor="middle">D</text>
    <rect x="468" y="92" width="120" height="12.5" rx="6" fill="#f9731633"></rect>
    <rect x="468" y="92" width="11.6" height="12.5" rx="6" fill="#f97316"></rect>
    <text x="528" y="158" fill="#e6edf5" font-size="14" font-weight="700" text-anchor="middle">9</text>
  
    <text x="652" y="80" fill="#a9b8d0" font-size="14" font-weight="700" text-anchor="middle">F</text>
    <rect x="616" y="92" width="120" height="9.5" rx="6" fill="#ef444433"></rect>
    <rect x="616" y="92" width="9.2" height="9.5" rx="6" fill="#ef4444"></rect>
    <text x="676" y="158" fill="#e6edf5" font-size="14" font-weight="700" text-anchor="middle">3</text>
  
</g>


<g transform="translate(856,160)">
  <rect width="384" height="84" rx="10" fill="#0c1c36" stroke="#1f3358"></rect>
  <text x="20" y="34" fill="#8a9bb4" font-size="11" letter-spacing=".06em">CLEAN RATE</text>
  <text x="20" y="68" fill="#e6edf5" font-size="32" font-weight="800">85.0%</text>
  <text x="200" y="58" fill="#22c55e" font-size="12">▲ 7.2 vs last period</text>
  <text x="200" y="74" fill="#5e7392" font-size="10">A + B grades</text>
</g>
<g transform="translate(856,256)">
  <rect width="384" height="84" rx="10" fill="#0c1c36" stroke="#1f3358"></rect>
  <text x="20" y="34" fill="#8a9bb4" font-size="11" letter-spacing=".06em">FOR COACHING</text>
  <text x="20" y="68" fill="#ef4444" font-size="32" font-weight="800">12</text>
  <text x="80" y="68" fill="#8a9bb4" font-size="12">tickets flagged</text>
  <text x="200" y="58" fill="#a9b8d0" font-size="11">Top issue: missing notes</text>
  <text x="200" y="74" fill="#a9b8d0" font-size="11">Second: time-entry too brief</text>
</g>


<text x="40" y="380" fill="#e6edf5" font-size="14" font-weight="700">Flagged for coaching</text>
<g transform="translate(40,400)">
  <rect width="1200" height="36" rx="8" fill="#0a1830"></rect>
  <text x="20" y="23" fill="#8a9bb4" font-size="11" letter-spacing=".06em">TICKET</text>
  <text x="120" y="23" fill="#8a9bb4" font-size="11" letter-spacing=".06em">CLIENT</text>
  <text x="320" y="23" fill="#8a9bb4" font-size="11" letter-spacing=".06em">TECH</text>
  <text x="460" y="23" fill="#8a9bb4" font-size="11" letter-spacing=".06em">GRADE</text>
  <text x="540" y="23" fill="#8a9bb4" font-size="11" letter-spacing=".06em">FLAG</text>
  <text x="900" y="23" fill="#8a9bb4" font-size="11" letter-spacing=".06em">ACTION</text>
</g>


<g transform="translate(40,448)">
  <rect width="1200" height="40" rx="8" fill="#0c1c36" stroke="#1f3358"></rect>
  <text x="20" y="25" fill="#a9b8d0" font-size="12" font-weight="600">#48291</text>
  <text x="120" y="25" fill="#e6edf5" font-size="12">Northwind Logistics</text>
  <text x="320" y="25" fill="#a9b8d0" font-size="12">Sasha P.</text>
  <rect x="460" y="10" width="34" height="20" rx="4" fill="#f9731622" stroke="#f97316"></rect>
  <text x="477" y="24" fill="#f97316" font-size="12" font-weight="800" text-anchor="middle">D</text>
  <text x="540" y="25" fill="#8a9bb4" font-size="11">4.5h time entry · 2 lines of notes</text>
  <rect x="1080" y="8" width="100" height="24" rx="6" fill="#16294a" stroke="#1f3358"></rect>
  <text x="1130" y="24" fill="#a9b8d0" font-size="11" text-anchor="middle">Send to coach</text>
</g>
<g transform="translate(40,496)">
  <rect width="1200" height="40" rx="8" fill="#0a1830" stroke="#1f3358"></rect>
  <text x="20" y="25" fill="#a9b8d0" font-size="12" font-weight="600">#48276</text>
  <text x="120" y="25" fill="#e6edf5" font-size="12">Cresta Studios</text>
  <text x="320" y="25" fill="#a9b8d0" font-size="12">Niko L.</text>
  <rect x="460" y="10" width="34" height="20" rx="4" fill="#ef444422" stroke="#ef4444"></rect>
  <text x="477" y="24" fill="#ef4444" font-size="12" font-weight="800" text-anchor="middle">F</text>
  <text x="540" y="25" fill="#8a9bb4" font-size="11">No notes · billing code mismatch</text>
  <rect x="1080" y="8" width="100" height="24" rx="6" fill="#16294a" stroke="#1f3358"></rect>
  <text x="1130" y="24" fill="#a9b8d0" font-size="11" text-anchor="middle">Send to coach</text>
</g>
<g transform="translate(40,544)">
  <rect width="1200" height="40" rx="8" fill="#0c1c36" stroke="#1f3358"></rect>
  <text x="20" y="25" fill="#a9b8d0" font-size="12" font-weight="600">#48218</text>
  <text x="120" y="25" fill="#e6edf5" font-size="12">Bayline Health</text>
  <text x="320" y="25" fill="#a9b8d0" font-size="12">Kai R.</text>
  <rect x="460" y="10" width="34" height="20" rx="4" fill="#f9731622" stroke="#f97316"></rect>
  <text x="477" y="24" fill="#f97316" font-size="12" font-weight="800" text-anchor="middle">D</text>
  <text x="540" y="25" fill="#8a9bb4" font-size="11">12-min entry · onsite SLA · no GPS</text>
  <rect x="1080" y="8" width="100" height="24" rx="6" fill="#16294a" stroke="#1f3358"></rect>
  <text x="1130" y="24" fill="#a9b8d0" font-size="11" text-anchor="middle">Send to coach</text>
</g>
<g transform="translate(40,592)">
  <rect width="1200" height="40" rx="8" fill="#0a1830" stroke="#1f3358"></rect>
  <text x="20" y="25" fill="#a9b8d0" font-size="12" font-weight="600">#48177</text>
  <text x="120" y="25" fill="#e6edf5" font-size="12">Northwind Logistics</text>
  <text x="320" y="25" fill="#a9b8d0" font-size="12">Sasha P.</text>
  <rect x="460" y="10" width="34" height="20" rx="4" fill="#eab30822" stroke="#eab308"></rect>
  <text x="477" y="24" fill="#eab308" font-size="12" font-weight="800" text-anchor="middle">C</text>
  <text x="540" y="25" fill="#8a9bb4" font-size="11">Internal-time tagged as billable</text>
  <rect x="1080" y="8" width="100" height="24" rx="6" fill="#16294a" stroke="#1f3358"></rect>
  <text x="1130" y="24" fill="#a9b8d0" font-size="11" text-anchor="middle">Send to coach</text>
</g>
<g transform="translate(40,640)">
  <rect width="1200" height="40" rx="8" fill="#0c1c36" stroke="#1f3358"></rect>
  <text x="20" y="25" fill="#a9b8d0" font-size="12" font-weight="600">#48125</text>
  <text x="120" y="25" fill="#e6edf5" font-size="12">Greenfield Realty</text>
  <text x="320" y="25" fill="#a9b8d0" font-size="12">Devon S.</text>
  <rect x="460" y="10" width="34" height="20" rx="4" fill="#f9731622" stroke="#f97316"></rect>
  <text x="477" y="24" fill="#f97316" font-size="12" font-weight="800" text-anchor="middle">D</text>
  <text x="540" y="25" fill="#8a9bb4" font-size="11">Resolution note: &#34;fixed it&#34;</text>
  <rect x="1080" y="8" width="100" height="24" rx="6" fill="#16294a" stroke="#1f3358"></rect>
  <text x="1130" y="24" fill="#a9b8d0" font-size="11" text-anchor="middle">Send to coach</text>
</g>
<g transform="translate(40,688)">
  <rect width="1200" height="40" rx="8" fill="#0a1830" stroke="#1f3358"></rect>
  <text x="20" y="25" fill="#a9b8d0" font-size="12" font-weight="600">#48088</text>
  <text x="120" y="25" fill="#e6edf5" font-size="12">Cresta Studios</text>
  <text x="320" y="25" fill="#a9b8d0" font-size="12">Niko L.</text>
  <rect x="460" y="10" width="34" height="20" rx="4" fill="#ef444422" stroke="#ef4444"></rect>
  <text x="477" y="24" fill="#ef4444" font-size="12" font-weight="800" text-anchor="middle">F</text>
  <text x="540" y="25" fill="#8a9bb4" font-size="11">No client signature on onsite</text>
  <rect x="1080" y="8" width="100" height="24" rx="6" fill="#16294a" stroke="#1f3358"></rect>
  <text x="1130" y="24" fill="#a9b8d0" font-size="11" text-anchor="middle">Send to coach</text>
</g>


<text x="40" y="780" fill="#5e7392" font-size="11">All grading happens automatically when a ticket closes · scoring rubric is editable in Settings</text>
</svg>